<?xml version="1.0" standalone="no"?>
<!DOCTYPE svg PUBLIC "-//W3C//DTD SVG 1.1//EN" "http://www.w3.org/Graphics/SVG/1.1/DTD/svg11.dtd" >
<!--
2013-9-30: Created.
-->
<svg>
<metadata>
Created by iconfont
</metadata>
<defs>

<font id="iconfont" horiz-adv-x="1024" >
  <font-face
    font-family="iconfont"
    font-weight="500"
    font-stretch="normal"
    units-per-em="1024"
    ascent="896"
    descent="-128"
  />
    <missing-glyph />
    
    <glyph glyph-name="xiaoshouneirong" unicode="&#58969;" d="M515 384m-512 0a512 512 0 1 1 1024 0 512 512 0 1 1-1024 0ZM491.016 507.919c0-49.896-40.449-90.345-90.345-90.345h-71.113c-49.896 0-90.345 40.449-90.345 90.345v71.113c0 49.896 40.45 90.345 90.345 90.345h71.113c49.896 0 90.345-40.449 90.345-90.345v-71.113z m0-285.377c0-49.896-40.449-90.345-90.345-90.345h-71.113c-49.896 0-90.345 40.449-90.345 90.345v71.113C239.213 343.551 279.663 384 329.558 384h71.113c49.896 0 90.345-40.45 90.345-90.345v-71.113zM776.393 507.919c0-49.896-40.449-90.345-90.345-90.345h-71.113c-49.896 0-90.345 40.449-90.345 90.345v71.113c0 49.896 40.45 90.345 90.345 90.345h71.113c49.896 0 90.345-40.449 90.345-90.345v-71.113zM548.125 314.557l45.908 45.908c36.976 36.976 96.925 36.976 133.9 0l45.91-45.908c36.975-36.976 36.975-96.925 0-133.9l-45.91-45.909c-36.975-36.975-96.924-36.975-133.9 0l-45.908 45.909c-36.976 36.975-36.976 96.924 0 133.9z"  horiz-adv-x="1027" />

    
    <glyph glyph-name="jibenxinxi" unicode="&#58882;" d="M512.00126 896c25.495 0 50.99-4.893 70.425-14.795l410.662-209.11c38.757-19.805 38.757-51.958 0-71.762L582.54126 391.223c-19.436-9.902-44.93-14.795-70.426-14.795-25.609 0-51.104 4.893-70.54 14.795L31.14326 600.333c-38.756 19.804-38.756 51.957 0 71.762l410.434 209.11C461.01126 891.107 486.50626 896 512.00126 896z m0-775.165c-31.44 0-62.88 6.408-88.032 19.222l-402.201 204.8C2.33126 354.76-5.55674 378.874 4.16126 398.795c9.718 19.804 33.384 27.843 52.934 17.94L459.18126 211.82c27.667-14.096 77.97-14.096 105.752 0l402.088 204.8c19.435 9.902 43.101 1.864 52.819-17.94 9.718-19.805 1.829-43.92-17.607-53.822l-402.201-204.8C572.48026 126.893 542.41126 120.37 512.00126 120.835zM512.00126-128c-31.44 0-62.88 6.407-88.032 19.222L21.88226 96.138C2.44626 106.041-5.44174 130.155 4.27626 149.96c9.717 19.805 33.383 27.843 52.819 17.94L459.18126-37.016c27.667-14.096 77.97-14.096 105.752 0L967.02226 167.9c19.435 9.902 43.101 1.864 52.819-17.94 9.718-19.805 1.829-43.92-17.607-53.822l-402.201-204.916C574.99526-121.593 543.55526-128 512.00126-128z"  horiz-adv-x="1024" />

    
    <glyph glyph-name="biaojimoban" unicode="&#58883;" d="M512 384m-512 0a512 512 0 1 1 1024 0 512 512 0 1 1-1024 0ZM391.365 298.743l-140.08 139.995v0.069l37.259 37.253a39.594 39.594 0 0 0 43.18 8.608l94.283-39.044 182.021 140.27-48.69 48.753 27.96 28.027c15.496 15.493 40.565 15.493 56.06 0l27.961-27.958 0.138 0.138 111.981-112.037-0.138-0.138 27.961-27.957c15.496-15.494 15.496-40.56 0-56.053l-27.96-27.958-48.829 48.685-140.355-181.862 39.048-94.408a39.582 39.582 0 0 0-8.608-43.176l-37.259-37.254-139.942 139.995-139.873-139.788h-56.06v55.984l139.873 139.856h0.07z"  horiz-adv-x="1024" />

    
    <glyph glyph-name="jihuabianhao" unicode="&#58885;" d="M512 384m-512 0a512 512 0 1 1 1024 0 512 512 0 1 1-1024 0ZM511.941 648c13.146 0 26.293-2.524 36.315-7.631L760.01 532.508c19.985-10.216 19.985-26.8 0-37.016l-211.697-107.86C538.293 382.523 525.146 380 512 380c-13.205 0-26.352 2.524-36.373 7.631L263.989 495.492c-19.985 10.216-19.985 26.8 0 37.016l211.638 107.86c10.021 5.108 23.168 7.632 36.314 7.632zM512 248.012c-16.211 0-32.422 3.309-45.391 9.926L259.223 363.694c-10.021 5.113-14.089 17.566-9.078 27.853 5.01 10.226 17.213 14.377 27.294 9.264l207.326-105.816c14.266-7.28 40.204-7.28 54.529 0L746.62 400.75c10.022 5.113 22.224 0.962 27.235-9.264 5.01-10.227 0.943-22.68-9.078-27.793L557.39 257.938A101.426 101.426 0 0 0 512 248.012zM511.97 120c-16.212 0-32.425 3.309-45.396 9.927L259.224 235.75c-10.022 5.114-14.09 17.567-9.079 27.795 5.012 10.227 17.216 14.379 27.238 9.265l207.35-105.825c14.267-7.28 40.208-7.28 54.534 0l207.35 105.825c10.022 5.114 22.226 0.962 27.238-9.265 5.011-10.228 0.943-22.681-9.08-27.795L557.367 129.927C544.455 123.309 528.242 120 511.97 120z"  horiz-adv-x="1024" />

    
    <glyph glyph-name="baoshouzongmubiao" unicode="&#58887;" d="M512 384m-512 0a512 512 0 1 1 1024 0 512 512 0 1 1-1024 0ZM512 247.162L328.089 130.868l53.77 210.847-167.434 138.973 217.144 14.016L512 696.89l80.431-202.185 217.144-14.016-167.434-138.973 53.77-210.847L512 247.162z m0 108.394l56.889 85.333H455.11L512 355.556z"  horiz-adv-x="1024" />

    
    <glyph glyph-name="shijijieshushijian" unicode="&#58888;" d="M512 384m-512 0a512 512 0 1 1 1024 0 512 512 0 1 1-1024 0ZM511.889 71.222C339.085 71.222 199 211.307 199 384.112 199 556.914 339.085 697 511.889 697s312.889-140.085 312.889-312.889-140.085-312.889-312.89-312.889zM353.476 513.173c-39.462-39.698-62.032-93.288-62.032-150.395 0-117.821 95.513-213.334 213.334-213.334 117.82 0 213.333 95.513 213.333 213.334 0 56.445-22.048 109.468-60.702 149.046-8.232 8.43-21.739 8.59-30.168 0.357-8.429-8.232-8.589-21.739-0.356-30.168 30.946-31.686 48.56-74.044 48.56-119.235 0-94.257-76.41-170.667-170.667-170.667S334.11 268.521 334.11 362.778c0 45.72 18.031 88.533 49.624 120.315 8.307 8.357 8.266 21.864-0.09 30.17-8.356 8.306-21.863 8.266-30.17-0.09z m151.302 70.05c-11.782 0-21.334-9.552-21.334-21.334V377c0-11.782 9.552-21.333 21.334-21.333s21.333 9.55 21.333 21.333V561.889c0 11.782-9.551 21.333-21.333 21.333z"  horiz-adv-x="1024" />

    
    <glyph glyph-name="jihuajieshushijian" unicode="&#58889;" d="M512 384m-512 0a512 512 0 1 1 1024 0 512 512 0 1 1-1024 0ZM506.647 99.532c-149.24 0-270.223 120.982-270.223 270.222 0 149.24 120.983 270.222 270.223 270.222s270.222-120.982 270.222-270.222c0-149.24-120.983-270.222-270.222-270.222z m-49.778 398.734c-11.782 0-21.333-9.552-21.333-21.334V263.6c0-11.782 9.55-21.333 21.333-21.333 11.782 0 21.333 9.55 21.333 21.333V476.932c0 11.782-9.551 21.334-21.333 21.334z m85.333 0c-11.782 0-21.333-9.552-21.333-21.334V263.6c0-11.782 9.551-21.333 21.333-21.333 11.782 0 21.334 9.55 21.334 21.333V476.932c0 11.782-9.552 21.334-21.334 21.334z m-289.685 40.103c8.332-8.33 8.332-21.838 0-30.17-8.33-8.33-21.838-8.33-30.17 0-28.463 28.464-28.463 74.612 0 103.075l36.803 36.802c27.898 27.899 73.13 27.899 101.028 0 8.331-8.33 8.331-21.838 0-30.17-8.331-8.33-21.839-8.33-30.17 0-11.236 11.236-29.452 11.236-40.688 0l-36.803-36.802c-11.8-11.8-11.8-30.934 0-42.735z m439.713 78.814c-8.331-8.331-21.839-8.331-30.17 0-8.331 8.331-8.331 21.839 0 30.17 28.463 28.463 74.611 28.463 103.074 0l36.803-36.803c27.898-27.898 27.898-73.13 0-101.028-8.331-8.33-21.839-8.33-30.17 0-8.331 8.331-8.331 21.839 0 30.17 11.236 11.236 11.236 29.453 0 40.689l-36.803 36.802c-11.8 11.8-30.933 11.8-42.734 0z"  horiz-adv-x="1024" />

    
    <glyph glyph-name="jihuakaishishijian" unicode="&#58890;" d="M512 384m-512 0a512 512 0 1 1 1024 0 512 512 0 1 1-1024 0ZM503.647 99.532c-149.24 0-270.223 120.982-270.223 270.222 0 149.24 120.983 270.222 270.223 270.222s270.222-120.982 270.222-270.222c0-149.24-120.983-270.222-270.222-270.222z m-15.633 426.666v-189.835l-74.95-78.942c-8.112-8.545-7.761-22.048 0.783-30.16 8.544-8.112 22.047-7.762 30.16 0.783l80.811 85.116a21.333 21.333 0 0 1 5.862 14.688v198.35c0 11.782-9.55 21.334-21.333 21.334-11.782 0-21.333-9.552-21.333-21.334zM252.517 538.37c8.332-8.33 8.332-21.838 0-30.17-8.33-8.33-21.838-8.33-30.17 0-28.463 28.464-28.463 74.612 0 103.075l36.803 36.802c27.898 27.899 73.13 27.899 101.028 0 8.331-8.33 8.331-21.838 0-30.17-8.331-8.33-21.839-8.33-30.17 0-11.236 11.236-29.452 11.236-40.688 0l-36.803-36.802c-11.8-11.8-11.8-30.934 0-42.735z m439.713 78.814c-8.331-8.331-21.839-8.331-30.17 0-8.331 8.331-8.331 21.839 0 30.17 28.463 28.463 74.611 28.463 103.074 0l36.803-36.803c27.898-27.898 27.898-73.13 0-101.028-8.331-8.33-21.839-8.33-30.17 0-8.331 8.331-8.331 21.839 0 30.17 11.236 11.236 11.236 29.453 0 40.689l-36.803 36.802c-11.8 11.8-30.933 11.8-42.734 0z"  horiz-adv-x="1024" />

    
    <glyph glyph-name="jihuamubiao1" unicode="&#58891;" d="M91.82 293.201V475.35 293.2zM950.899 896h-785.96c-40.382 0-73.12-36.282-73.12-81.02v-171.256H45.912C20.552 643.723 0 624.874 0 601.63c0-23.244 20.552-42.095 45.911-42.095H91.82v-350.5H45.91C20.552 209.037 0 190.192 0 166.943c0-23.245 20.552-42.093 45.911-42.093H91.82v-171.824c0-44.746 32.737-81.024 73.12-81.024h785.959c40.382 0 73.101 36.28 73.101 81.024V814.978C1024 859.718 991.281 896 950.899 896zM552.89-26.832c-181.638 0-328.889 62.083-328.889 138.666 0 64.502 104.612 118.56 246.083 134.057v43.93c-63.527 41.531-110.972 127.083-110.972 222.18 0 133.529 44.389 241.778 193.779 241.778S746.667 645.53 746.667 512c0-95.096-47.442-180.648-110.97-222.179v-43.93c141.47-15.498 246.083-69.555 246.083-134.057-0.001-76.583-147.25-138.666-328.89-138.666z"  horiz-adv-x="1024" />

    
    <glyph glyph-name="shijikaishishijian" unicode="&#58892;" d="M512 384m-512 0a512 512 0 1 1 1024 0 512 512 0 1 1-1024 0ZM512 71.111c-172.804 0-312.889 140.085-312.889 312.889S339.196 696.889 512 696.889 824.889 556.804 824.889 384 684.804 71.111 512 71.111z m14.222 336.543V618.667c0 11.782-9.551 21.333-21.333 21.333-11.782 0-21.333-9.551-21.333-21.333v-211.013c-16.818-7.989-28.445-25.13-28.445-44.987 0-19.857 11.627-36.999 28.445-44.988v-47.457h42.666V317.68c16.818 7.99 28.445 25.13 28.445 44.988 0 19.857-11.627 36.998-28.445 44.987z"  horiz-adv-x="1024" />

    
    <glyph glyph-name="jinjiezongmubiao" unicode="&#58893;" d="M512 384m-512 0a512 512 0 1 1 1024 0 512 512 0 1 1-1024 0ZM770.092 207.064l54.797-50.62H741.28l-1.725-1.725v-83.608l-53.107 53.106C636.61 90.682 576.59 71.111 512 71.111c-172.804 0-312.889 140.085-312.889 312.889S339.196 696.889 512 696.889 824.889 556.804 824.889 384c0-65.667-20.23-126.61-54.797-176.936z m-133.19 21.864L596.35 269.48c-23.599-17.411-52.773-27.702-84.35-27.702-78.547 0-142.222 63.675-142.222 142.222 0 78.547 63.675 142.222 142.222 142.222 78.547 0 142.222-63.675 142.222-142.222 0-31.577-10.29-60.751-27.702-84.35l40.552-40.552c27.547 34.157 44.04 77.604 44.04 124.902 0 109.966-89.146 199.111-199.112 199.111S312.889 493.966 312.889 384 402.034 184.889 512 184.889c47.298 0 90.745 16.492 124.902 44.039zM585.52 340.65c7.507 12.705 11.814 27.524 11.814 43.349 0 47.128-38.205 85.333-85.333 85.333S426.667 431.128 426.667 384s38.205-85.333 85.333-85.333c15.825 0 30.644 4.307 43.349 11.814l-38.317 38.317a35.86 35.86 0 0 0-5.032-0.354c-19.637 0-35.556 15.92-35.556 35.556 0 19.637 15.92 35.556 35.556 35.556 19.637 0 35.556-15.92 35.556-35.556 0-1.708-0.12-3.388-0.354-5.032l38.317-38.317z"  horiz-adv-x="1024" />

    
    <glyph glyph-name="shijizhi" unicode="&#58894;" d="M512 384m-512 0a512 512 0 1 1 1024 0 512 512 0 1 1-1024 0ZM556.852 157.309H670.22c11.782 0 21.333-9.552 21.333-21.334s-9.551-21.333-21.333-21.333H399.998c-11.783 0-21.334 9.551-21.334 21.333 0 11.782 9.551 21.334 21.334 21.334h112.374V219.3H291.81c-19.533 0-35.811 16.907-35.811 37.196V574.36c0 20.289 16.278 37.197 35.81 37.197h468.795c20.347 0 36.624-16.908 35.81-37.197v-317.862c0-20.289-16.277-37.196-35.81-37.196H556.852v-61.992z m-165.74 312.024c-11.783 0-21.334-9.55-21.334-21.333 0-11.782 9.551-21.333 21.333-21.333h270.222c11.782 0 21.334 9.55 21.334 21.333 0 11.782-9.552 21.333-21.334 21.333H391.111z"  horiz-adv-x="1024" />

    
    <glyph glyph-name="yusuanfeiyong" unicode="&#58895;" d="M512 384m-512 0a512 512 0 1 1 1024 0 512 512 0 1 1-1024 0ZM430.8 527.004c1.45 3.425 2.176 9.275 2.176 17.551-1.052 2.1-2.42 4.292-3.868 6.61-1.484 2.376-3.017 4.83-4.324 7.386a117.12 117.12 0 0 0-1.907 3.053c-1.65 2.7-3.352 5.485-5.372 7.51l-0.864 1.053-7.367 11.061c-3.446 5.75-7.706 10.832-11.39 13.592l-0.746 0.647c-4.418 4.42-8.853 7.75-13.553 11.276-5.872 4.405-10.262 10.235-13.128 17.389-3.432 8.596-0.398 17.75 7.55 23.227 3.423 4.5 7.664 6.612 13.237 6.612 3.736 0 7.198-0.912 10.87-1.882 0.882-0.232 1.805-0.475 2.78-0.718l0.517-0.152c1.716-0.572 3.717-1.141 5.717-1.713 2.191-0.628 4.38-1.252 6.259-1.882 2.34-0.78 4.92-0.837 7.872-0.843 3.805 0.86 6.267 2.316 9.038 4.142 3.153 4.087 8.281 7.906 15.618 11.633 6.217 4.43 13.91 5.963 22.724 4.49a46.996 46.996 0 0 0 17.068-7.054l1.522-1.017 0.821-1.636c0.158-0.276 0.978-0.903 1.465-1.279 0.392-0.298 0.76-0.591 1.1-0.876 1.157-0.633 2.063-1.235 2.881-1.785 0.804-0.533 1.44-0.959 2.247-1.362l2.053-1.028 1.028-2.053c0.077-0.11 0.26-0.252 0.503-0.406 1.539 0.923 5.297 4.683 7.576 6.966 5.604 5.6 11.224 8.41 16.181 10.886 2.75 1.377 5.75 2.042 9.185 2.042 4.396 0 9.165-1.105 14.98-2.771l0.28-0.086c4.093-1.362 8.735-2.907 12.289-6.463l7.187-7.181c1.613-1.614 3.28-2.446 5.385-3.496 1.617-0.81 4.17-1.669 6.502-1.669 2.36 0 5.175 0.904 8.162 1.899 1.332 0.635 2.808 1.224 4.236 1.799 1.343 0.536 2.733 1.094 3.675 1.56l1.456 0.73h1.316c0.345 0.061 0.779 0.169 1.257 0.277 1.812 0.409 4.07 0.922 6.245 0.922 2.66 0 7.115 0 11.77-1.555 6.356-2.114 11.004-6.325 12.75-11.553l0.428-1.243c1.139-3.275 2.562-7.345 0.768-12.71-1.39-4.173-2.854-7.11-5.592-11.228-2.888-4.332-5.966-7.416-10.301-10.303-6.621-4.416-12.194-8.845-16.58-13.175-1.748-2.324-3.752-4.9-5.758-7.477-2.07-2.664-4.139-5.325-5.916-7.69l-0.638-0.738c-1.915-1.918-4.159-5.28-6.325-8.533l-6.955-10.428c-2.66-5.255-5.363-9.21-8.836-13.838 1.3-7.528 3.367-13.037 6.2-16.525a0.502 0.502 0 0 0 0.039-0.055l2.003-2.502c4.703-5.88 10.7-13.07 17.82-21.379 5.805-6.966 12.796-13.948 22.058-22.05l0.337-0.315c8.442-8.441 19.013-17.789 30.572-27.04l0.235-0.196c9.842-8.616 19.54-18.314 30.527-30.525 11.058-12.282 19.793-25.772 27.485-42.445 8.45-18.29 13.874-36.648 16.134-54.567 3.35-19.104 2.993-39.778-1.19-69.079a175.284 175.284 0 0 0-22.479-60.068c-11.193-18.668-26.319-35.062-44.957-48.734-19.391-14.22-40.778-25.12-65.384-33.324-23.332-8.173-51.906-12.332-84.818-12.332-31.395 0-59.928 4.427-87.228 13.529l-0.273 0.1c-28.53 10.867-48.43 22.378-64.528 37.324-17.955 15.385-32.592 33.058-42.117 50.92-10.643 19.955-17.526 38.206-21.038 55.799-3.526 18.798-3.952 38.474-1.277 58.557 2.426 18.176 7.292 35.617 14.874 53.312 6.977 15.12 15.14 29.502 25.756 45.43l0.403 0.54c12.41 15.165 23.296 26.826 34.258 36.693l3.675 3.263c9.403 8.348 17.527 15.557 24.81 22.84 8.234 8.237 15.35 15.35 21.133 22.294l0.423 0.461c6.836 6.839 12.591 13.736 17.104 20.508l2.05 3.076h0.138z m94.952-327.612c21.19 1.4 38.102 6.649 50.737 15.746 14.934 11.15 22.4 26.184 22.4 45.1 0 19.512-9.159 34.844-27.477 45.994-7.765 4.779-26.382 11.747-55.85 20.906-19.514 5.775-31.858 10.155-37.035 13.142-10.553 5.575-15.83 13.141-15.83 22.698 0 10.753 4.58 18.518 13.74 23.296 7.565 4.182 18.317 6.272 32.255 6.272 16.128 0 28.274-3.086 36.437-9.258 8.164-5.774 13.74-15.73 16.726-29.867h32.256c-1.991 23.296-10.453 40.42-25.387 51.37-10.81 8.305-25.135 13.341-42.972 15.111v39.29h-28.445v-39.182c-16.906-1.627-31.33-6.5-43.27-14.62-15.73-10.753-23.596-25.487-23.596-44.204 0-18.716 8.164-32.952 24.491-42.709 5.973-3.186 22.3-9.06 48.981-17.621 23.297-7.168 37.433-11.947 42.411-14.336 13.54-6.97 20.31-16.327 20.31-28.075 0-9.557-4.78-17.024-14.337-22.4-9.955-5.575-22.798-8.363-38.528-8.363-17.72 0-30.961 3.286-39.722 9.856-9.558 7.169-15.53 19.215-17.92 36.14H423.87c1.792-26.881 11.449-46.593 28.97-59.137 11.586-8.033 26.408-12.95 44.466-14.75v-39.266h28.445v38.867z"  horiz-adv-x="1024" />

    
    <glyph glyph-name="shijikaishishijian1" unicode="&#58896;" d="M512 384m-512 0a512 512 0 1 1 1024 0 512 512 0 1 1-1024 0ZM512 71.111c-172.804 0-312.889 140.085-312.889 312.889S339.196 696.889 512 696.889 824.889 556.804 824.889 384 684.804 71.111 512 71.111z m14.222 336.543V618.667c0 11.782-9.551 21.333-21.333 21.333-11.782 0-21.333-9.551-21.333-21.333v-211.013c-16.818-7.989-28.445-25.13-28.445-44.987 0-19.857 11.627-36.999 28.445-44.988v-47.457h42.666V317.68c16.818 7.99 28.445 25.13 28.445 44.988 0 19.857-11.627 36.998-28.445 44.987z"  horiz-adv-x="1024" />

    
    <glyph glyph-name="zongchengben" unicode="&#58897;" d="M512 384m-512 0a512 512 0 1 1 1024 0 512 512 0 1 1-1024 0ZM430.698 526.77c1.519 3.39 2.278 9.318 2.278 17.785-1.052 2.1-2.42 4.292-3.868 6.61-1.484 2.376-3.017 4.83-4.324 7.386a117.12 117.12 0 0 0-1.907 3.053c-1.65 2.7-3.352 5.485-5.372 7.51l-0.864 1.053-7.367 11.061c-3.446 5.75-7.706 10.832-11.39 13.592l-0.746 0.647c-4.418 4.42-8.853 7.75-13.553 11.276-5.872 4.405-10.262 10.235-13.128 17.389-3.432 8.596-0.398 17.75 7.55 23.227 3.423 4.5 7.664 6.612 13.237 6.612 3.736 0 7.198-0.912 10.87-1.882 0.882-0.232 1.805-0.475 2.78-0.718l0.517-0.152c1.716-0.572 3.717-1.141 5.717-1.713 2.191-0.628 4.38-1.252 6.259-1.882 2.34-0.78 4.92-0.837 7.872-0.843 3.805 0.86 6.267 2.316 9.038 4.142 3.153 4.087 8.281 7.906 15.618 11.633 6.217 4.43 13.91 5.963 22.724 4.49a46.996 46.996 0 0 0 17.068-7.054l1.522-1.017 0.821-1.636c0.158-0.276 0.978-0.903 1.465-1.279 0.392-0.298 0.76-0.591 1.1-0.876 1.157-0.633 2.063-1.235 2.881-1.785 0.804-0.533 1.44-0.959 2.247-1.362l2.053-1.028 1.028-2.053c0.077-0.11 0.26-0.252 0.503-0.406 1.539 0.923 5.297 4.683 7.576 6.966 5.604 5.6 11.224 8.41 16.181 10.886 2.75 1.377 5.75 2.042 9.185 2.042 4.396 0 9.165-1.105 14.98-2.771l0.28-0.086c4.093-1.362 8.735-2.907 12.289-6.463l7.187-7.181c1.613-1.614 3.28-2.446 5.385-3.496 1.617-0.81 4.17-1.669 6.502-1.669 2.36 0 5.175 0.904 8.162 1.899 1.332 0.635 2.808 1.224 4.236 1.799 1.343 0.536 2.733 1.094 3.675 1.56l1.456 0.73h1.316c0.345 0.061 0.779 0.169 1.257 0.277 1.812 0.409 4.07 0.922 6.245 0.922 2.66 0 7.115 0 11.77-1.555 6.356-2.114 11.004-6.325 12.75-11.553l0.428-1.243c1.139-3.275 2.562-7.345 0.768-12.71-1.39-4.173-2.854-7.11-5.592-11.228-2.888-4.332-5.966-7.416-10.301-10.303-6.621-4.416-12.194-8.845-16.58-13.175-1.748-2.324-3.752-4.9-5.758-7.477-2.07-2.664-4.139-5.325-5.916-7.69l-0.638-0.738c-1.915-1.918-4.159-5.28-6.325-8.533l-6.955-10.428c-2.66-5.255-5.363-9.21-8.836-13.838 1.3-7.528 3.367-13.037 6.2-16.525 4.248-5.232-145.835-5.283-143.556-0.199z m71.938-424.412c-31.395 0-59.928 4.427-87.228 13.529l-0.273 0.1c-28.53 10.867-48.43 22.378-64.528 37.324-17.955 15.385-32.592 33.058-42.117 50.92-10.643 19.955-17.526 38.206-21.038 55.799-3.526 18.798-3.952 38.474-1.277 58.557 2.426 18.176 7.292 35.617 14.874 53.312 6.977 15.12 15.14 29.502 25.756 45.43l0.403 0.54c12.41 15.165 23.296 26.826 34.258 36.693l3.675 3.263c9.403 8.348 17.527 15.557 24.81 22.84 8.234 8.237 15.35 15.35 21.133 22.294l0.423 0.461c6.836 6.839 12.591 13.736 17.104 20.508l2.05 3.076h143.56l2.075-2.592c4.703-5.88 10.7-13.07 17.82-21.379 5.805-6.966 12.796-13.948 22.058-22.05l0.337-0.315c8.442-8.441 19.013-17.789 30.572-27.04l0.235-0.196c9.842-8.616 19.54-18.314 30.527-30.525 11.058-12.282 19.793-25.772 27.485-42.445 8.45-18.29 13.874-36.648 16.134-54.567 3.35-19.104 2.993-39.778-1.19-69.079a175.284 175.284 0 0 0-22.479-60.068c-11.193-18.668-26.319-35.062-44.957-48.734-19.391-14.22-40.778-25.12-65.384-33.324-23.332-8.173-51.906-12.332-84.818-12.332z m-95.128 295.266v-27.179h89.685v-54.812h-89.685v-27.179h89.685v-116.921h28.672V288.454h90.283v27.179h-90.283v54.812h90.283v27.179h-49.365c8.163 12.942 15.43 26.88 21.802 41.813l-27.477 9.557c-7.566-19.114-15.73-36.238-24.49-51.37h-65.11 20.62c-8.363 14.933-22.91 37.134-33.463 51.072l-24.49-11.648a350.317 350.317 0 0 0 26.581-39.424h-53.248z"  horiz-adv-x="1024" />

    
    <glyph glyph-name="chanpinleixing" unicode="&#58898;" d="M512 384m-512 0a512 512 0 1 1 1024 0 512 512 0 1 1-1024 0ZM512 696.889l96.685-188.83 216.204-30.279L668.44 330.8l36.935-207.54L512 221.245l-193.376-97.986 36.928 207.54-156.44 146.981 216.203 30.28z"  horiz-adv-x="1024" />

    
    <glyph glyph-name="chanpinhuodongmingcheng" unicode="&#58899;" d="M512 384m-512 0a512 512 0 1 1 1024 0 512 512 0 1 1-1024 0ZM369.778 128h28.444c15.71 0 28.445-12.735 28.445-28.444 0-15.71-12.735-28.445-28.445-28.445H284.444c-15.709 0-28.444 12.735-28.444 28.445C256 115.265 268.735 128 284.444 128h28.445V680.889c0 8.836 7.163 16 16 16h469.713c8.836 0 16-7.164 16-16a16 16 0 0 0-1.788-7.35l-87.091-168.412a16 16 0 0 1 0-14.699l87.091-168.412c4.06-7.849 0.987-17.502-6.863-21.561a16 16 0 0 0-7.35-1.788H369.779V128z m156.444 305.778l58.518-30.765-11.176 65.16 47.341 46.147-65.424 9.507-29.259 59.284-29.258-59.284-65.425-9.507 47.342-46.147-11.176-65.16 58.517 30.765z"  horiz-adv-x="1024" />

    
    <glyph glyph-name="huodongzhuangtai" unicode="&#58900;" d="M512 384m-512 0a512 512 0 1 1 1024 0 512 512 0 1 1-1024 0ZM512 696.889l96.685-188.83 216.204-30.279L668.44 330.8l36.935-207.54L512 221.245l-193.376-97.986 36.928 207.54-156.44 146.981 216.203 30.28z"  horiz-adv-x="1024" />

    
    <glyph glyph-name="chanpinjingli" unicode="&#58901;" d="M512 384m-512 0a512 512 0 1 1 1024 0 512 512 0 1 1-1024 0ZM796.312 182.742C793.881 320.28 677.418 432.11 530.53 440.858c-6.152-0.628-12.336-0.946-18.526-0.953-6.362 0-12.634 0.354-18.81 0.984l0.291-0.035c-146.888-8.741-263.358-120.57-265.793-258.115-0.088-0.401-0.135-0.812-0.135-1.238v-18.792c0-1.662 0.713-3.255 1.983-4.43 1.27-1.175 2.993-1.835 4.789-1.835h555.344c3.74 0 6.772 2.805 6.772 6.265V181.5a5.561 5.561 0 0 1-0.132 1.24zM369.778 554.667c0-78.547 63.675-142.223 142.222-142.223 78.547 0 142.222 63.676 142.222 142.223 0 50.81-27.107 97.762-71.11 123.168-44.005 25.405-98.22 25.405-142.223 0-44.004-25.406-71.111-72.357-71.111-123.168z"  horiz-adv-x="1024" />

    
    <glyph glyph-name="yingxiaohuodong" unicode="&#58902;" d="M926.405 531.435L809.92 889.495a9.473 9.473 0 0 1-15.518 3.901c-195.44-183.822-425.4-64.33-615.101-193.128l-62.045-20.143c-14.632-4.755-22.64-20.471-17.886-35.104l245.17-753.79c4.768-14.62 20.48-22.614 35.105-17.858l38.196 12.426c14.632 4.755 22.64 20.471 17.887 35.104L304.116 325.686c186.442 158.609 547.4 82.383 621.286 197.613a9.528 9.528 0 0 1 1.003 8.136z"  horiz-adv-x="1024" />

    
    <glyph glyph-name="zhuangtai" unicode="&#58903;" d="M512 384m-512 0a512 512 0 1 1 1024 0 512 512 0 1 1-1024 0ZM511.889 71.222C339.085 71.222 199 211.307 199 384.112 199 556.914 339.085 697 511.889 697s312.889-140.085 312.889-312.889-140.085-312.889-312.89-312.889zM511.869 579c-0.37 0-0.74-0.006-1.112-0.018-19.248-0.614-34.353-16.716-33.739-35.964l7.006-219.531C484.496 308.724 496.6 297 511.37 297c14.785 0 26.915 11.708 27.439 26.483l7.785 219.54c0.014 0.41 0.022 0.82 0.022 1.231 0 19.19-15.557 34.746-34.746 34.746zM512 190c17.12 0 31 13.88 31 31 0 17.12-13.88 31-31 31-17.12 0-31-13.88-31-31 0-17.12 13.88-31 31-31z"  horiz-adv-x="1024" />

    
    <glyph glyph-name="kaifangqishiriqi" unicode="&#58904;" d="M512 384m-512 0a512 512 0 1 1 1024 0 512 512 0 1 1-1024 0ZM796.184 605.887c0 34.577-28.607 62.557-64.04 62.557H679.61v-46.755c0-17.76-14.759-32.257-33.093-32.257-18.335 0-33.093 14.498-33.093 32.257v46.755H409.73v-46.755c0-17.76-14.759-32.257-33.093-32.257-18.335 0-33.093 14.498-33.093 32.257v46.755h-51.948c-35.433 0-64.04-27.98-64.04-62.557v-63.862h568.888v63.862h-0.26zM227.556 159.028c0-32.872 28.623-59.472 64.077-59.472h440.734c35.454 0 64.077 26.6 64.077 59.472V510.42H227.556v-351.392z m164.802 194.66c9.386 9.32 24.986 6.018 33.207-4.697l68.164-88.659 136.39 177.61c8.222 10.643 22.657 12.33 32.95 3.964 10.551-8.66 7.638-29.357 0.906-36.99L508.747 202.352c-8.222-10.642-21.427-10.642-29.713 0l-86.741 112.29c-7.897 10.716-9.969 29.064 0.065 39.046z"  horiz-adv-x="1024" />

    
    <glyph glyph-name="xiangguanchanpin" unicode="&#58905;" d="M59 113.268V595.803l418.055-241.268V-128L59 113.268z m488.94 241.267l418.056 241.268v-482.535L547.94-128V354.535zM510.364 896l419.976-237.425-415.706-245.11L94.656 650.889 510.363 896z"  horiz-adv-x="1024" />

    
    <glyph glyph-name="zongmubiaozhibiao" unicode="&#58907;" d="M512 384m-512 0a512 512 0 1 1 1024 0 512 512 0 1 1-1024 0ZM458.366 119.864C352.57 141.23 269.23 224.569 247.864 330.366a54.542 54.542 0 0 0-5.338-0.26c-29.765 0-53.894 24.129-53.894 53.894 0 29.765 24.13 53.895 53.894 53.895 1.802 0 3.582-0.089 5.338-0.261C269.23 543.43 352.569 626.77 458.366 648.136a54.542 54.542 0 0 0-0.26 5.338c0 29.765 24.129 53.894 53.894 53.894 29.765 0 53.895-24.13 53.895-53.894 0-1.802-0.089-3.582-0.261-5.338C671.43 626.77 754.77 543.431 776.136 437.634a54.542 54.542 0 0 0 5.338 0.26c29.765 0 53.894-24.129 53.894-53.894 0-29.765-24.13-53.895-53.894-53.895-1.802 0-3.582 0.089-5.338 0.261C754.77 224.57 671.431 141.23 565.634 119.864c0.172-1.756 0.26-3.536 0.26-5.338 0-29.765-24.129-53.894-53.894-53.894-29.765 0-53.895 24.13-53.895 53.894 0 1.802 0.089 3.582 0.261 5.338zM512 276.21c-59.53 0-107.79 48.259-107.79 107.789S452.47 491.79 512 491.79c59.53 0 107.79-48.26 107.79-107.79 0-59.53-48.26-107.79-107.79-107.79z m0-53.895c89.296 0 161.684 72.388 161.684 161.684 0 89.296-72.388 161.684-161.684 161.684-89.296 0-161.684-72.388-161.684-161.684 0-89.296 72.388-161.684 161.684-161.684z"  horiz-adv-x="1024" />

    
    <glyph glyph-name="chanpinhuodongmingcheng1" unicode="&#58908;" d="M512 384m-512 0a512 512 0 1 1 1024 0 512 512 0 1 1-1024 0ZM369.778 128h28.444c15.71 0 28.445-12.735 28.445-28.444 0-15.71-12.735-28.445-28.445-28.445H284.444c-15.709 0-28.444 12.735-28.444 28.445C256 115.265 268.735 128 284.444 128h28.445V680.889c0 8.836 7.163 16 16 16h469.713c8.836 0 16-7.164 16-16a16 16 0 0 0-1.788-7.35l-87.091-168.412a16 16 0 0 1 0-14.699l87.091-168.412c4.06-7.849 0.987-17.502-6.863-21.561a16 16 0 0 0-7.35-1.788H369.779V128z m156.444 305.778l58.518-30.765-11.176 65.16 47.341 46.147-65.424 9.507-29.259 59.284-29.258-59.284-65.425-9.507 47.342-46.147-11.176-65.16 58.517 30.765z"  horiz-adv-x="1024" />

    
    <glyph glyph-name="paixumoren" unicode="&#58970;" d="M512.982 896l-362.69-406.952h725.38L512.981 896zM149 282.934L512.31-128 875.67 282.934H149z"  horiz-adv-x="1024" />

    
    <glyph glyph-name="xiala" unicode="&#58971;" d="M960.164 649.025l-448.16-449.086L63.807 649.025c-14.577 14.633-38.256 14.633-52.873 0-14.577-14.634-14.577-38.355 0-52.989L479.895 126.18c1.458-2.32 2.522-4.8 4.53-6.805 7.605-7.632 17.612-11.054 27.58-10.74 9.928-0.314 19.975 3.108 27.54 10.74 2.048 2.006 3.073 4.484 4.53 6.805l468.962 469.856c14.617 14.634 14.617 38.355 0 52.989-14.577 14.633-38.256 14.633-52.873 0"  horiz-adv-x="1024" />

    
    <glyph glyph-name="paixumorenxia" unicode="&#58972;" d="M512.982 896l-362.69-406.952h725.38zM149 282.934L512.31-128 875.67 282.934z"  horiz-adv-x="1024" />

    
    <glyph glyph-name="paixumorenshang" unicode="&#58973;" d="M512.982 896l-362.69-406.952h725.38zM149 282.934L512.31-128 875.67 282.934z"  horiz-adv-x="1024" />

    
    <glyph glyph-name="fuzeren" unicode="&#58906;" d="M512 384m-512 0a512 512 0 1 1 1024 0 512 512 0 1 1-1024 0ZM565.855 346.21c124.848-32.299 201.86-78.777 231.034-139.434v-60.948H228v60.948c19.887 51.28 96.756 97.759 230.608 139.433-32.58 40.81-51.246 85.02-55.997 132.63V573.02C411.784 658.729 490.705 663 512.444 663c60.26 0 97.002-29.993 110.225-89.98v-94.182c-6.66-42.572-25.598-86.781-56.814-132.629z"  horiz-adv-x="1024" />

    
    <glyph glyph-name="chanpinjingli1" unicode="&#58909;" d="M512 384m-512 0a512 512 0 1 1 1024 0 512 512 0 1 1-1024 0ZM432.46 433.711C393.62 459.391 368 503.453 368 553.5c0 79.253 64.247 143.5 143.5 143.5S655 632.753 655 553.5c0-49.916-25.486-93.88-64.156-119.587C709.336 399.742 796 290.492 796 161H228c0 129.238 86.325 238.314 204.46 272.711z"  horiz-adv-x="1024" />

    
    <glyph glyph-name="kaifangqishiriqi1" unicode="&#58910;" d="M512 384m-512 0a512 512 0 1 1 1024 0 512 512 0 1 1-1024 0ZM227.556 159.028V510.42h568.888v-351.392c0-32.872-28.623-59.472-64.077-59.472H291.633c-35.454 0-64.077 26.6-64.077 59.472z m400.872 290.566L495.566 277.632l-69.689 89.383c-9.338 11.978-26.619 14.117-38.596 4.779-11.978-9.339-14.117-26.619-4.779-38.596l91.475-117.326c11.041-14.16 32.47-14.114 43.45 0.095l154.524 200c9.286 12.019 7.07 29.29-4.948 38.575-12.018 9.286-29.289 7.07-38.575-4.948zM680 669h46c38.66 0 70-31.34 70-70v-57H227v57c0 38.66 31.34 70 70 70h46v-46.5c0-18.502 14.998-33.5 33.5-33.5 18.502 0 33.5 14.998 33.5 33.5V669h203v-46.5c0-18.502 14.998-33.5 33.5-33.5 18.502 0 33.5 14.998 33.5 33.5V669z"  horiz-adv-x="1024" />

    
    <glyph glyph-name="shaixuan-meiyoutiaojian" unicode="&#58911;" d="M445.634 487.466v-366.15l95.676-74.59v443.09l290.372 320.85h-651.27l265.222-323.2zM908.91 896h77.227l12.456-28.074-51.82-57.26h-115.09L908.91 896zM0 896h1024L626.644 456.935V-128L360.3 79.64V456.935L0 896z"  horiz-adv-x="1024" />

    
    <glyph glyph-name="sousuo" unicode="&#58912;" d="M702.738 257.625l309.793-309.792c15.292-15.293 15.292-40.087 0-55.38-15.293-15.292-40.087-15.292-55.38 0L649.158 200.449c-68.848-60.169-158.951-96.624-257.569-96.624C175.32 103.824 0 279.144 0 495.412 0 711.68 175.32 887 391.588 887c216.268 0 391.588-175.32 391.588-391.588 0-89.432-29.98-171.861-80.438-237.787z m-311.15-75.483c173.014 0 313.27 140.256 313.27 313.27 0 173.014-140.256 313.27-313.27 313.27-173.014 0-313.27-140.256-313.27-313.27 0-173.014 140.256-313.27 313.27-313.27z"  horiz-adv-x="1024" />

    
    <glyph glyph-name="shaixuan-youtiaojian" unicode="&#58913;" d="M445.634 487.466v-366.15l95.676-74.59v443.09l290.372 320.85h-651.27l265.222-323.2zM908.91 896h77.227l12.456-28.074-51.82-57.26h-115.09L908.91 896zM0 896h1024L626.644 456.935V-128L360.3 79.64V456.935L0 896z"  horiz-adv-x="1024" />

    
    <glyph glyph-name="biangengqiandengji" unicode="&#58914;" d="M512 384m-512 0a512 512 0 1 1 1024 0 512 512 0 1 1-1024 0ZM739.625 589.415c9.897 0 18.007-8.036 18.007-17.92v-211.09c0-77.901-127.767-261.294-244.315-261.294C402.02 99.111 266 278.38 266 366.876V572.562a17.85 17.85 0 0 0 5.324 12.693c3.394 3.378 8.432 4.658 12.79 5.226 54.988 0 170.321 14.791 215.09 70.79a18.261 18.261 0 0 0 12.434 6.65c4.894 0.462 9.718-1.103 13.434-4.267 0.893-0.747 88.036-74.24 214.553-74.24z m-303.713-82.038v-225.66h103.032c24.02 0 42.666 4.425 55.94 13.274 15.592 10.746 23.388 27.391 23.388 49.936 0 15.381-3.792 27.602-11.378 36.662-7.585 9.06-18.857 15.065-33.817 18.015 10.957 4.003 19.7 10.219 26.232 18.647 6.321 8.85 9.482 19.595 9.482 32.237 0 17.277-6.005 30.973-18.015 41.086-12.431 10.535-29.709 15.803-51.832 15.803H435.912z m34.449-28.445h60.05c15.591 0 26.758-2.633 33.5-7.901 6.954-5.057 10.43-13.274 10.43-24.652 0-12.01-3.476-20.86-10.43-26.548-7.163-5.478-18.54-8.217-34.133-8.217h-59.417v67.318z m0-95.447h64.79c16.646 0 28.866-2.95 36.662-8.85 8.007-6.11 12.01-15.801 12.01-29.076 0-12.852-5.162-22.334-15.487-28.444-8.638-4.635-20.016-6.953-34.133-6.953h-63.842v73.323z"  horiz-adv-x="1024" />

    
    <glyph glyph-name="keguanyuanyin" unicode="&#58915;" d="M512 384m-512 0a512 512 0 1 1 1024 0 512 512 0 1 1-1024 0ZM365.706 668h291.765c64.454 0 116.706-52.252 116.706-116.706v-393.09c0-32.229-26.123-58.352-58.353-58.352a58.33 58.33 0 0 0-26.73 6.484c-94.472 48.68-153.007 73.025-175.615 73.025-22.744 0-82.646-24.639-179.713-73.917-28.738-14.588-63.857-3.118-78.445 25.615A58.358 58.358 0 0 0 249 157.477V551.294C249 615.748 301.252 668 365.706 668z m148.047-140.36c-35.203 0-62.619-11.415-82.247-34.244-18.989-21.549-28.483-49.818-28.483-84.808 0-34.777 9.494-62.939 28.483-84.488 20.055-22.615 47.47-33.923 82.247-33.923s62.193 11.201 82.248 33.603c19.202 21.762 28.803 50.031 28.803 84.808 0 35.417-9.601 63.793-28.803 85.128-20.055 22.616-47.47 33.923-82.248 33.923z m0-30.724c24.536 0 43.311-7.894 56.326-23.682 13.014-16.001 19.522-37.55 19.522-64.646 0-27.096-6.508-48.43-19.522-64.006-13.228-15.788-32.003-23.682-56.326-23.682-24.109 0-42.99 8.107-56.645 24.322-12.801 15.789-19.202 36.91-19.202 63.366 0 26.883 6.401 48.111 19.202 63.686 13.228 16.428 32.11 24.642 56.645 24.642z"  horiz-adv-x="1024" />

    
    <glyph glyph-name="keguanshuoming" unicode="&#58916;" d="M512 384m-512 0a512 512 0 1 1 1024 0 512 512 0 1 1-1024 0ZM450.062 176.54l-0.239-0.314h-0.2l-68.506-49.076c-3.14-2.356-7.46-3.926-11.778-3.926-3.534 0-6.674 0.785-9.815 2.356-7.067 3.926-11.386 10.993-11.386 19.237l1.963 78.522H297.1c-40.439 0-69.099 33.372-69.099 73.81V572.76c0 39.654 28.66 72.24 69.099 72.24h422.839c40.438 0 76.95-32.194 76.95-72.24v-275.61c0-40.832-36.904-73.81-76.95-73.81H515.389l-65.327-46.8z m64.23 383.41c-35.467 0-63.088-11.499-82.864-34.5-19.13-21.71-28.696-50.19-28.696-85.443 0-35.037 9.565-63.41 28.696-85.121 20.206-22.785 47.827-34.178 82.864-34.178 35.038 0 62.659 11.285 82.865 33.855 19.345 21.926 29.018 50.407 29.018 85.444 0 35.683-9.673 64.271-29.018 85.766-20.206 22.785-47.827 34.178-82.865 34.178z m0-30.952c24.72 0 43.636-7.954 56.748-23.86 13.112-16.122 19.668-37.832 19.668-65.13 0-27.3-6.556-48.795-19.668-64.487-13.327-15.906-32.243-23.86-56.748-23.86-24.29 0-43.313 8.169-57.07 24.505-12.897 15.907-19.345 37.187-19.345 63.841 0 27.084 6.448 48.472 19.345 64.164 13.327 16.551 32.35 24.827 57.07 24.827z"  horiz-adv-x="1024" />

    
    <glyph glyph-name="biangengqianfene" unicode="&#58917;" d="M512 384m-512 0a512 512 0 1 1 1024 0 512 512 0 1 1-1024 0ZM683.833 613c6.381 0 12.38-3.086 16.08-8.295l93.326-131.357c5.407-7.6 4.745-17.948-1.578-24.805L526.001 160.63c-7.82-8.492-21.231-8.47-29.028 0.047L233.181 448.543c-6.277 6.857-6.927 17.182-1.532 24.759l93.36 131.403A19.727 19.727 0 0 0 341.09 613h342.743z m-247.776-75.189v-232.98h106.375c24.8 0 44.051 4.568 57.756 13.704 16.098 11.094 24.147 28.28 24.147 51.556 0 15.88-3.916 28.497-11.747 37.851-7.832 9.354-19.47 15.554-34.915 18.6 11.312 4.133 20.34 10.55 27.083 19.251 6.526 9.137 9.79 20.231 9.79 33.283 0 17.838-6.2 31.978-18.6 42.42-12.835 10.877-30.672 16.315-53.514 16.315H436.057z m35.568-29.367h61.997c16.098 0 27.627-2.72 34.588-8.158 7.18-5.22 10.768-13.705 10.768-25.452 0-12.4-3.589-21.536-10.768-27.41-7.396-5.655-19.143-8.483-35.24-8.483h-61.345v69.503z m0-98.544h66.892c17.185 0 29.802-3.045 37.851-9.136 8.266-6.309 12.4-16.316 12.4-30.02 0-13.27-5.33-23.06-15.99-29.368-8.918-4.785-20.665-7.178-35.24-7.178h-65.913V409.9z"  horiz-adv-x="1024" />

    
    <glyph glyph-name="biangenghoudengji" unicode="&#58918;" d="M512 384m-512 0a512 512 0 1 1 1024 0 512 512 0 1 1-1024 0ZM739.625 589.415c9.897 0 18.007-8.036 18.007-17.92v-211.09c0-77.901-127.767-261.294-244.315-261.294C402.02 99.111 266 278.38 266 366.876V572.562a17.85 17.85 0 0 0 5.324 12.693c3.394 3.378 8.432 4.658 12.79 5.226 54.988 0 170.321 14.791 215.09 70.79a18.261 18.261 0 0 0 12.434 6.65c4.894 0.462 9.718-1.103 13.434-4.267 0.893-0.747 88.036-74.24 214.553-74.24z m-286.963-82.038v-225.66h34.45V382.853h112.197v29.393H487.112v65.738h118.834v29.393H452.662z"  horiz-adv-x="1024" />

    
    <glyph glyph-name="zhuguanshuoming" unicode="&#58919;" d="M512 384m-512 0a512 512 0 1 1 1024 0 512 512 0 1 1-1024 0ZM450.062 176.54l-0.239-0.314h-0.2l-68.506-49.076c-3.14-2.356-7.46-3.926-11.778-3.926-3.534 0-6.674 0.785-9.815 2.356-7.067 3.926-11.386 10.993-11.386 19.237l1.963 78.522H297.1c-40.439 0-69.099 33.372-69.099 73.81V572.76c0 39.654 28.66 72.24 69.099 72.24h422.839c40.438 0 76.95-32.194 76.95-72.24v-275.61c0-40.832-36.904-73.81-76.95-73.81H515.389l-65.327-46.8z m63.263 383.41c-24.505 0-44.818-5.48-60.94-16.443-16.98-11.608-25.471-27.514-25.471-47.72 0-20.205 8.813-35.574 26.44-46.107 6.448-3.44 24.074-9.78 52.878-19.023 25.15-7.739 40.41-12.897 45.785-15.477 14.616-7.523 21.925-17.626 21.925-30.308 0-10.318-5.16-18.379-15.477-24.182-10.748-6.02-24.612-9.028-41.593-9.028-19.131 0-33.425 3.546-42.883 10.64-10.318 7.738-16.767 20.743-19.346 39.014H419.82c1.934-29.02 12.36-50.3 31.275-63.841 16.122-11.178 38.047-16.767 65.776-16.767 29.018 0 51.588 5.804 67.71 17.412 16.121 12.037 24.182 28.266 24.182 48.686 0 21.066-9.888 37.617-29.663 49.654-8.384 5.16-28.482 12.683-60.295 22.57-21.065 6.234-34.392 10.963-39.98 14.187-11.393 6.02-17.09 14.187-17.09 24.505 0 11.608 4.944 19.99 14.832 25.15 8.168 4.514 19.776 6.77 34.822 6.77 17.412 0 30.524-3.331 39.337-9.995 8.813-6.233 14.832-16.981 18.056-32.243h34.822c-2.15 25.15-11.285 43.636-27.406 55.458-14.832 11.393-35.79 17.089-62.874 17.089z"  horiz-adv-x="1024" />

    
    <glyph glyph-name="biangengqianbaoyouliang" unicode="&#58920;" d="M512 384m-512 0a512 512 0 1 1 1024 0 512 512 0 1 1-1024 0ZM439.852 544.302c-0.991 1.864-2.201 3.802-3.472 5.838-1.491 2.388-3.033 4.854-4.346 7.422-0.63 0.964-1.263 2-1.916 3.069-1.658 2.713-3.368 5.512-5.398 7.547l-0.87 1.058-7.402 11.116c-3.463 5.778-7.745 10.885-11.447 13.659l-0.75 0.65c-4.44 4.443-8.896 7.789-13.62 11.332-5.9 4.426-10.313 10.286-13.192 17.475-3.45 8.639-0.4 17.838 7.586 23.342 3.44 4.523 7.703 6.645 13.304 6.645 3.754 0 7.233-0.916 10.924-1.891 0.886-0.233 1.813-0.478 2.793-0.722l0.52-0.153c1.724-0.575 3.734-1.147 5.745-1.721 2.202-0.63 4.401-1.258 6.29-1.892 2.351-0.783 4.945-0.84 7.91-0.846 3.824 0.863 6.299 2.327 9.084 4.162 3.168 4.107 8.322 7.945 15.694 11.69 6.248 4.452 13.979 5.993 22.837 4.513a47.229 47.229 0 0 0 17.153-7.09l1.53-1.021 0.824-1.644c0.159-0.278 0.983-0.908 1.472-1.286 0.395-0.3 0.764-0.594 1.105-0.88 1.164-0.636 2.075-1.241 2.897-1.794 0.808-0.536 1.446-0.963 2.257-1.369l2.063-1.033 1.033-2.063c0.078-0.111 0.261-0.253 0.506-0.408 1.546 0.927 5.323 4.706 7.614 7 5.631 5.629 11.28 8.453 16.261 10.94 2.763 1.384 5.779 2.053 9.23 2.053 4.418 0 9.211-1.11 15.054-2.785l0.283-0.086c4.112-1.37 8.777-2.921 12.348-6.495l7.223-7.217c1.622-1.622 3.296-2.458 5.412-3.513 1.624-0.814 4.19-1.677 6.534-1.677 2.371 0 5.201 0.908 8.203 1.907 1.338 0.64 2.821 1.23 4.257 1.808 1.35 0.539 2.746 1.1 3.693 1.57l1.463 0.732h1.322c0.347 0.061 0.783 0.17 1.263 0.278 1.822 0.41 4.09 0.927 6.276 0.927 2.674 0 7.15 0 11.83-1.563 6.386-2.124 11.057-6.356 12.812-11.61l0.43-1.25c1.144-3.29 2.574-7.38 0.772-12.773-1.397-4.193-2.868-7.145-5.62-11.282-2.902-4.354-5.995-7.453-10.352-10.355-6.654-4.438-12.254-8.889-16.661-13.24-1.758-2.336-3.771-4.924-5.787-7.514-2.08-2.677-4.16-5.351-5.945-7.728l-0.642-0.742c-1.924-1.927-4.179-5.306-6.356-8.575l-6.99-10.48c-1.991-3.933-4.006-7.141-6.347-10.444 0.809-7.935 2.514-16.756 3.866-20.148h-0.11l1.995-2.49c4.726-5.91 10.752-13.135 17.907-21.485 5.835-7 12.86-14.018 22.168-22.16l0.339-0.316c8.483-8.483 19.107-17.877 30.723-27.174l0.236-0.197c9.89-8.658 19.638-18.405 30.678-30.676 11.113-12.343 19.89-25.9 27.622-42.655 8.491-18.38 13.942-36.83 16.214-54.837 3.365-19.2 3.007-39.976-1.197-69.421a176.152 176.152 0 0 0-22.59-60.366c-11.249-18.76-26.45-35.235-45.18-48.975-19.487-14.29-40.98-25.244-65.708-33.489-23.447-8.214-52.162-12.393-85.237-12.393-31.55 0-60.225 4.449-87.66 13.596l-0.275 0.1c-28.67 10.92-48.67 22.49-64.847 37.51-18.044 15.46-32.753 33.221-42.325 51.17-10.696 20.055-17.613 38.396-21.143 56.076-3.543 18.891-3.97 38.665-1.283 58.847 2.438 18.266 7.328 35.794 14.948 53.577 7.012 15.194 15.214 29.648 25.883 45.654l0.405 0.544c12.471 15.24 23.412 26.957 34.428 36.874l3.693 3.279c9.45 8.389 17.613 15.634 24.933 22.953 8.275 8.278 15.426 15.426 21.237 22.404l0.425 0.464c6.87 6.872 12.654 13.803 17.189 20.61l2.06 3.09h0.156c1.21 2.823 1.796 10.747 1.756 18.443z m-5.023-114.247v-229.611h104.837c24.44 0 43.413 4.502 56.92 13.506 15.865 10.934 23.797 27.871 23.797 50.81 0 15.651-3.859 28.086-11.577 37.305-7.718 9.218-19.188 15.328-34.41 18.33 11.15 4.073 20.046 10.398 26.692 18.973 6.432 9.005 9.648 19.939 9.648 32.802 0 17.58-6.11 31.515-18.33 41.806-12.65 10.72-30.23 16.08-52.74 16.08H434.829z m35.053-28.942h61.1c15.866 0 27.228-2.68 34.089-8.04 7.075-5.145 10.612-13.507 10.612-25.084 0-12.22-3.537-21.224-10.612-27.013-7.29-5.574-18.866-8.36-34.731-8.36h-60.458v68.497z m0-97.119h65.925c16.936 0 29.37-3.001 37.303-9.004 8.147-6.218 12.22-16.08 12.22-29.586 0-13.078-5.252-22.725-15.757-28.943-8.79-4.716-20.367-7.074-34.731-7.074h-64.96v74.607z"  horiz-adv-x="1024" />

    
    <glyph glyph-name="xianyoufene" unicode="&#58921;" d="M512 384m-512 0a512 512 0 1 1 1024 0 512 512 0 1 1-1024 0ZM683.833 613c6.381 0 12.38-3.086 16.08-8.295l93.326-131.357c5.407-7.6 4.745-17.948-1.578-24.805L526.001 160.63c-7.82-8.492-21.231-8.47-29.028 0.047L233.181 448.543c-6.277 6.857-6.927 17.182-1.532 24.759l93.36 131.403A19.727 19.727 0 0 0 341.09 613h342.743z m-230.481-75.189v-232.98h35.567V409.246h115.837v30.347H488.92v67.87h122.69v30.347H453.352z"  horiz-adv-x="1024" />

    
    <glyph glyph-name="zhuguanyuanyin" unicode="&#58922;" d="M512 384m-512 0a512 512 0 1 1 1024 0 512 512 0 1 1-1024 0ZM365.706 668h291.765c64.454 0 116.706-52.252 116.706-116.706v-393.09c0-32.229-26.123-58.352-58.353-58.352a58.33 58.33 0 0 0-26.73 6.484c-94.472 48.68-153.007 73.025-175.615 73.025-22.744 0-82.646-24.639-179.713-73.917-28.738-14.588-63.857-3.118-78.445 25.615A58.358 58.358 0 0 0 249 157.477V551.294C249 615.748 301.252 668 365.706 668z m147.087-140.36c-24.322 0-44.484-5.441-60.485-16.322-16.855-11.521-25.283-27.31-25.283-47.365 0-20.055 8.748-35.31 26.243-45.764 6.4-3.414 23.895-9.707 52.485-18.882 24.962-7.68 40.11-12.8 45.444-15.361 14.508-7.467 21.762-17.495 21.762-30.083 0-10.24-5.12-18.242-15.361-24.002-10.668-5.974-24.43-8.96-41.284-8.96-18.989 0-33.177 3.52-42.564 10.56-10.241 7.68-16.642 20.589-19.202 38.724h-34.563c1.92-28.803 12.267-49.925 31.043-63.366 16.001-11.095 37.763-16.642 65.286-16.642 28.803 0 51.204 5.76 67.206 17.282 16.002 11.948 24.002 28.056 24.002 48.324 0 20.909-9.814 37.337-29.443 49.285-8.32 5.12-28.269 12.588-59.845 22.402-20.909 6.187-34.137 10.881-39.684 14.081-11.308 5.974-16.961 14.082-16.961 24.323 0 11.52 4.907 19.841 14.721 24.962 8.107 4.48 19.628 6.72 34.563 6.72 17.282 0 30.296-3.306 39.044-9.92 8.747-6.188 14.721-16.855 17.922-32.003h34.563c-2.134 24.962-11.201 43.31-27.203 55.045-14.721 11.307-35.523 16.961-62.406 16.961z"  horiz-adv-x="1024" />

    
    <glyph glyph-name="xianyoubaoyouliang" unicode="&#58923;" d="M512 384m-512 0a512 512 0 1 1 1024 0 512 512 0 1 1-1024 0ZM578.574 545.931c0.837-8.222 2.626-17.41 3.999-20.482l1.724-2.195c4.726-5.909 10.752-13.134 17.907-21.484 5.835-7 12.86-14.018 22.168-22.16l0.339-0.316c8.483-8.483 19.107-17.877 30.723-27.174l0.236-0.197c9.89-8.658 19.638-18.405 30.678-30.676 11.113-12.343 19.89-25.9 27.622-42.655 8.491-18.38 13.942-36.83 16.214-54.837 3.365-19.2 3.007-39.976-1.197-69.421a176.152 176.152 0 0 0-22.59-60.366c-11.249-18.76-26.45-35.235-45.18-48.975-19.487-14.29-40.98-25.244-65.708-33.489-23.447-8.214-52.162-12.393-85.237-12.393-31.55 0-60.225 4.449-87.66 13.596l-0.275 0.1c-28.67 10.92-48.67 22.49-64.847 37.51-18.044 15.46-32.753 33.221-42.325 51.17-10.696 20.055-17.613 38.396-21.143 56.076-3.543 18.891-3.97 38.665-1.283 58.847 2.438 18.266 7.328 35.794 14.948 53.577 7.012 15.194 15.214 29.648 25.883 45.654l0.405 0.544c12.471 15.24 23.412 26.957 34.428 36.874l3.693 3.279c9.45 8.389 17.613 15.634 24.933 22.953 8.275 8.278 15.426 15.426 21.237 22.404l0.425 0.464c6.87 6.872 12.654 13.803 17.189 20.61l2.06 3.09h0.835c-0.627 0.248-0.87 0.52-0.73 0.813 1.226 2.548 1.828 10.142 1.808 17.627-0.991 1.865-2.201 3.804-3.473 5.84-1.491 2.389-3.033 4.855-4.346 7.423-0.63 0.964-1.263 2-1.916 3.069-1.658 2.713-3.368 5.512-5.398 7.547l-0.87 1.058-7.402 11.116c-3.463 5.778-7.745 10.885-11.447 13.659l-0.75 0.65c-4.44 4.443-8.896 7.789-13.62 11.332-5.9 4.426-10.313 10.286-13.192 17.475-3.45 8.639-0.4 17.838 7.586 23.342 3.44 4.523 7.703 6.645 13.304 6.645 3.754 0 7.233-0.916 10.924-1.891 0.886-0.233 1.813-0.478 2.793-0.722l0.52-0.153c1.724-0.575 3.734-1.147 5.745-1.721 2.202-0.63 4.401-1.258 6.29-1.892 2.351-0.783 4.945-0.84 7.91-0.846 3.824 0.863 6.299 2.327 9.084 4.162 3.168 4.107 8.322 7.945 15.694 11.69 6.248 4.452 13.979 5.993 22.837 4.513a47.229 47.229 0 0 0 17.153-7.09l1.53-1.021 0.824-1.644c0.159-0.278 0.983-0.908 1.472-1.286 0.395-0.3 0.764-0.594 1.105-0.88 1.164-0.636 2.075-1.241 2.897-1.794 0.808-0.536 1.446-0.963 2.257-1.369l2.063-1.033 1.033-2.063c0.078-0.111 0.261-0.253 0.506-0.408 1.546 0.927 5.323 4.706 7.614 7 5.631 5.629 11.28 8.453 16.261 10.94 2.763 1.384 5.779 2.053 9.23 2.053 4.418 0 9.211-1.11 15.054-2.785l0.283-0.086c4.112-1.37 8.777-2.921 12.348-6.495l7.223-7.217c1.622-1.622 3.296-2.458 5.412-3.513 1.624-0.814 4.19-1.677 6.534-1.677 2.371 0 5.201 0.908 8.203 1.907 1.338 0.64 2.821 1.23 4.257 1.808 1.35 0.539 2.746 1.1 3.693 1.57l1.463 0.732h1.322c0.347 0.061 0.783 0.17 1.263 0.278 1.822 0.41 4.09 0.927 6.276 0.927 2.674 0 7.15 0 11.83-1.563 6.386-2.124 11.057-6.356 12.812-11.61l0.43-1.25c1.144-3.29 2.574-7.38 0.772-12.773-1.397-4.193-2.868-7.145-5.62-11.282-2.902-4.354-5.995-7.453-10.352-10.355-6.654-4.438-12.254-8.889-16.661-13.24-1.758-2.336-3.771-4.924-5.787-7.514-2.08-2.677-4.16-5.351-5.945-7.728l-0.642-0.742c-1.924-1.927-4.179-5.306-6.356-8.575l-6.99-10.48c-1.983-3.918-3.99-7.116-6.32-10.406z m-126.7-115.876v-229.611h35.052V303.35h114.162v29.907H486.926v66.89h120.916v29.907H451.873z"  horiz-adv-x="1024" />

    
    <glyph glyph-name="youshaixuanxiang" unicode="&#58924;" d="M0 704l511.964-640L1024 704z"  horiz-adv-x="1024" />

    
    <glyph glyph-name="zhankai" unicode="&#58925;" d="M1024 64L512.036 704 0 64z"  horiz-adv-x="1024" />

    
    <glyph glyph-name="meiyoushaixuanxiang" unicode="&#58926;" d="M0 704l511.964-640L1024 704z"  horiz-adv-x="1024" />

    
    <glyph glyph-name="xinyingyong-jinse" unicode="&#58927;" d="M132.129 599h858.839c18.243 0 33.032-14.789 33.032-33.032v-363.355c0-18.243-14.789-33.032-33.032-33.032H132.129c-18.243 0-33.032 14.789-33.032 33.032v93.265L0 380.835l99.097 82.728V565.968c0 18.243 14.789 33.032 33.032 33.032z m60.538-94.684v-235.85h27.087v193.9h0.99l134.112-193.9h27.747v235.85h-27.087V312.4h-0.99L221.074 504.316h-28.408z m243.477 0v-235.85h172.759v23.453H463.23v86.544h132.13v23.453H463.23v78.947h140.057v23.453H436.144z m194.259 0l67.716-235.85h30.06l53.842 196.542h0.99l53.513-196.542h30.06l67.716 235.85h-30.39l-51.86-197.863h-1.322l-53.512 197.863h-29.399l-53.843-197.863h-1.32l-51.861 197.863h-30.39z"  horiz-adv-x="1024" />

    
    <glyph glyph-name="xinyingyong-kase" unicode="&#58928;" d="M132.129 599h858.839c18.243 0 33.032-14.789 33.032-33.032v-363.355c0-18.243-14.789-33.032-33.032-33.032H132.129c-18.243 0-33.032 14.789-33.032 33.032v93.265L0 380.835l99.097 82.728V565.968c0 18.243 14.789 33.032 33.032 33.032z m60.538-94.684v-235.85h27.087v193.9h0.99l134.112-193.9h27.747v235.85h-27.087V312.4h-0.99L221.074 504.316h-28.408z m243.477 0v-235.85h172.759v23.453H463.23v86.544h132.13v23.453H463.23v78.947h140.057v23.453H436.144z m194.259 0l67.716-235.85h30.06l53.842 196.542h0.99l53.513-196.542h30.06l67.716 235.85h-30.39l-51.86-197.863h-1.322l-53.512 197.863h-29.399l-53.843-197.863h-1.32l-51.861 197.863h-30.39z"  horiz-adv-x="1024" />

    
    <glyph glyph-name="bianji" unicode="&#58974;" d="M351.477 224.323c6.01-6.01 13.868-8.994 21.726-8.994 7.859 0 15.717 2.983 21.705 8.994L998.355 827.748c12 11.999 12 31.455 0 43.453-11.998 11.977-31.454 11.977-43.453 0L351.477 267.754c-11.999-11.999-11.999-31.433 0-43.431M993.302 553.45c-16.985 0-30.72-13.757-30.72-30.72v-446.397c0-78.804-63.933-142.893-142.492-142.893H203.954c-78.58 0-142.514 64.089-142.514 142.893V691.667c0 78.782 63.933 142.893 142.514 142.893h465.43c16.963 0 30.72 13.757 30.72 30.72S686.347 896 669.384 896h-465.43C91.492 896 0 804.33 0 691.667v-615.334C0-36.352 91.492-128 203.954-128H820.09c112.44 0 203.91 91.648 203.91 204.333V522.73c0 16.963-13.757 30.72-30.698 30.72"  horiz-adv-x="1024" />

    
    <glyph glyph-name="beizhu" unicode="&#58980;" d="M512 384m-512 0a512 512 0 1 1 1024 0 512 512 0 1 1-1024 0ZM737.105 668C770.183 668 797 641.752 797 609.421v-345.533c0-32.366-26.817-58.614-59.895-58.614h-59.894v-106.345L527.474 205.274h-239.58c-33.077 0-59.894 26.248-59.894 58.614V609.421c0 32.33 26.853 58.579 59.895 58.579h449.21zM353 561c-11.598 0-21-9.402-21-21s9.402-21 21-21h320c11.598 0 21 9.402 21 21s-9.402 21-21 21H353z m0-102c-11.598 0-21-9.402-21-21s9.402-21 21-21h320c11.598 0 21 9.402 21 21s-9.402 21-21 21H353z m0-102c-11.598 0-21-9.402-21-21s9.402-21 21-21h320c11.598 0 21 9.402 21 21s-9.402 21-21 21H353z"  horiz-adv-x="1024" />

    
    <glyph glyph-name="bohuiyijian" unicode="&#58981;" d="M512 384m-512 0a512 512 0 1 1 1024 0 512 512 0 1 1-1024 0ZM747.37 481.532L625.747 603.155l30.406 30.405 0.036-0.036c33.72 31.485 86.59 30.79 119.465-2.085s33.57-85.744 2.085-119.465l0.036-0.036-30.405-30.406z m-29.699-29.698L547.188 281.35 522.67 256.62c-2.856-2.778-5.67-5.52-8.437-8.226l-54.284-54.284a6058.649 6058.649 0 0 0-20.095-20.095l-15.631-15.63-0.491 0.49c-3.827-3.339-8.085-6.798-12.863-10.464-5.633-4.322-11.411-7.78-17.478-10.374-6.067-3.025-14.878-6.628-26.434-10.95a828.245 828.245 0 0 0-36.545-12.536c-12.71-4.034-24.7-7.636-36.256-10.662-11.41-3.026-19.933-4.899-25.567-5.763-11.7-1.297-19.355 0.432-23.255 5.187-3.9 4.755-4.912 12.68-3.178 23.918 0.866 6.051 2.889 14.697 6.211 26.08a1461.91 1461.91 0 0 0 10.4 35.444c3.611 12.248 7.222 23.486 10.69 33.86 3.466 10.375 6.21 17.435 8.377 21.325 2.6 6.052 5.489 11.527 8.667 16.426 3.178 4.755 7.8 10.23 13.867 16.282 0.689 0.687 1.622 1.617 2.795 2.796l-0.562 0.563 293.449 293.45L717.67 451.833z"  horiz-adv-x="1024" />

    
    <glyph glyph-name="diandian" unicode="&#58982;" d="M512 384m-512 0a512 512 0 1 1 1024 0 512 512 0 1 1-1024 0ZM512 384m-307.2 0a307.2 307.2 0 1 1 614.4 0 307.2 307.2 0 1 1-614.4 0Z"  horiz-adv-x="1024" />

    
    <glyph glyph-name="fujian" unicode="&#58983;" d="M615.60082 38.150951c67.60998-67.60998 176.904948-68.19998 243.706928-1.396999 66.99298 66.99298 66.321981 175.986948-1.694999 244.004928L408.59788 729.773749c-67.79198 67.79098-177.217948 68.48098-244.004928 1.694999-66.84998-66.84998-66.141981-176.166948 1.521999-243.829928 22.569993-22.569993 22.784993-58.946983 0.48-81.250977-22.302993-22.303993-58.679983-22.088994-81.249976 0.48C-27.436992 519.65181-28.616992 701.723757 82.861976 813.201724 194.268943 924.608692 376.44989 923.459692 489.366857 810.543725l449.014868-449.014868c113.146967-113.146967 114.266967-294.894914 2.656999-406.504881-111.391967-111.390967-293.439914-110.409968-406.206881 2.358999L372.394891 119.819927l-82.879976 82.878976c-67.90898 67.90998-68.35298 176.684948-1.363999 243.673929 67.15998 67.15998 176.060948 66.246981 243.936928-1.628L692.652797 284.179879l3.051999-3.050999c22.569993-22.569993 22.784993-58.946983 0.48-81.249976-22.302993-22.304993-58.679983-22.089994-81.249976 0.48l-3.050999 3.051999-160.565953 160.564953c-22.824993 22.824993-58.971983 23.127993-81.434976 0.666-22.446993-22.447993-22.299993-58.469983 0.403-81.172977l82.879975-82.879975 162.435953-162.435953v-0.002z"  horiz-adv-x="1024" />

    
    <glyph glyph-name="jinzhan" unicode="&#58984;" d="M512 384m-512 0a512 512 0 1 1 1024 0 512 512 0 1 1-1024 0ZM343.988 668h388.6c35.434 0 64.04-27.98 64.04-62.557h0.26v-63.863H228v63.863C228 640.019 256.607 668 292.04 668h51.948zM228 158.584V509.975h568.889v-351.391c0-32.872-28.623-59.473-64.077-59.473H292.077c-35.454 0-64.077 26.6-64.077 59.473zM409 421c-11.598 0-21-9.402-21-21s9.402-21 21-21h302c11.598 0 21 9.402 21 21s-9.402 21-21 21H409z m0-96c-11.598 0-21-9.402-21-21s9.402-21 21-21h228c11.598 0 21 9.402 21 21s-9.402 21-21 21H409z m0-96c-11.598 0-21-9.402-21-21s9.402-21 21-21h138c11.598 0 21 9.402 21 21s-9.402 21-21 21H409z m-97 150c11.598 0 21 9.402 21 21s-9.402 21-21 21-21-9.402-21-21 9.402-21 21-21z m0-96c11.598 0 21 9.402 21 21s-9.402 21-21 21-21-9.402-21-21 9.402-21 21-21z m0-96c11.598 0 21 9.402 21 21s-9.402 21-21 21-21-9.402-21-21 9.402-21 21-21z"  horiz-adv-x="1024" />

    
    <glyph glyph-name="xiezuoren" unicode="&#58985;" d="M939.448 99.5l-225.897 88.055s-43.076 16.729-59.805 33.158c-10.719 10.618-10.018 35.562-0.501 67.418 9.517 31.856 125.32 161.384 125.32 278.99C778.565 748.742 659.155 896 511.896 896 364.638 896 245.228 748.741 245.228 567.122c0-112.698 103.181-246.934 115.903-271.377 12.723-24.443 9.617-61.609-0.4-72.929-15.127-16.93-70.324-33.859-70.324-33.859l-203.558-90.86C39.266 81.067 2 36.188 2-14.4v-66.516c0-55.198 44.879-46.582 99.976-46.582h822.346c55.197 0 99.975-8.716 99.975 46.582v66.516c0 50.59-37.265 96.77-84.849 113.9"  horiz-adv-x="1024" />

    
    <glyph glyph-name="zhankaishouqi" unicode="&#58986;" d="M960.181 629.812c14.58 13.584 38.278 13.584 52.858 0 14.615-13.583 14.615-35.605 0-49.188L544.114 144.35c-1.468-2.141-2.527-4.475-4.541-6.36-7.58-7.064-17.62-10.26-27.556-9.972-9.97-0.288-19.975 2.908-27.59 9.972-2.014 1.885-3.073 4.219-4.541 6.36L10.96 580.624c-14.615 13.583-14.615 35.605 0 49.188 14.58 13.584 38.277 13.584 52.858 0l448.198-416.969 448.164 416.97z"  horiz-adv-x="1024" />

    
    <glyph glyph-name="dianhua" unicode="&#58987;" d="M512 384m-512 0a512 512 0 1 1 1024 0 512 512 0 1 1-1024 0ZM543.896 256.083a72.826 72.826 0 0 0 13.827 19.24l41.126 41.144c19.056 19.052 49.163 21.35 70.891 5.414l103.942-76.217c24.317-17.829 29.577-51.996 11.748-76.313a54.598 54.598 0 0 0-5.43-6.329l-30.742-30.724a106.604 106.604 0 0 0-55.538-29.464v-0.16l-2.272-0.248a107.652 107.652 0 0 0-17.395-1.491c-116.082-7.597-234.72 32.96-323.45 121.69-88.729 88.73-129.287 207.368-121.708 323.45 0.018 5.822 0.532 11.644 1.49 17.394l0.25 2.272h0.177a106.604 106.604 0 0 0 29.446 55.539l30.725 30.724c21.319 21.324 55.888 21.329 77.212 0.01a54.597 54.597 0 0 0 5.43-6.329l76.216-103.941c15.937-21.729 13.638-51.835-5.413-70.892l-41.144-41.125a72.702 72.702 0 0 0-19.24-13.81 437.35 437.35 0 0 1 69.49-90.362 437.34 437.34 0 0 1 90.345-69.49l0.017 0.018z"  horiz-adv-x="1024" />

    
    <glyph glyph-name="excel" unicode="&#58976;" d="M630 896l287-287v-699c0-20.987-17.013-38-38-38H145c-20.987 0-38 17.013-38 38V858c0 20.987 17.013 38 38 38h485zM145 880c-12.15 0-22-9.85-22-22v-948c0-12.15 9.85-22 22-22h734c12.15 0 22 9.85 22 22V602.373L623.373 880H145zM630 896l287-287v-699c0-20.987-17.013-38-38-38H145c-20.987 0-38 17.013-38 38V858c0 20.987 17.013 38 38 38h485zM630 896l287-287H651c-11.598 0-21 9.402-21 21V896zM120.5 798h259C446.05 798 500 744.05 500 677.5S446.05 557 379.5 557h-259C53.95 557 0 610.95 0 677.5S53.95 798 120.5 798zM568 143H457v-94h111v94z m0 22v99H457v-99h111z m-242-22v-94h109v94H326z m0 22h109v99H326v-99z m372-22H590v-94h108v94z m0 22v99H590v-99h108zM457 386v-100h111V386H457z m-22 0H326v-100h109V386z m155 0v-100h108V386H590z m-264 22h372c12.15 0 22-9.85 22-22v-337c0-12.15-9.85-22-22-22H326c-12.15 0-22 9.85-22 22V386c0 12.15 9.85 22 22 22zM275 685h18c18.778 0 34-15.222 34-34s-15.222-34-34-34H181a8 8 0 1 0 0 16h112c9.941 0 18 8.059 18 18s-8.059 18-18 18h-86c-18.778 0-34 15.222-34 34s15.222 34 34 34h112a8 8 0 1 0 0-16H207c-9.941 0-18-8.059-18-18s8.059-18 18-18h68z"  horiz-adv-x="1026" />

    
    <glyph glyph-name="qita" unicode="&#58975;" d="M630 896l287-287v-699c0-20.987-17.013-38-38-38H145c-20.987 0-38 17.013-38 38V858c0 20.987 17.013 38 38 38h485zM145 880c-12.15 0-22-9.85-22-22v-948c0-12.15 9.85-22 22-22h734c12.15 0 22 9.85 22 22V602.373L623.373 880H145zM630 896l287-287v-699c0-20.987-17.013-38-38-38H145c-20.987 0-38 17.013-38 38V858c0 20.987 17.013 38 38 38h485zM630 896l287-287H651c-11.598 0-21 9.402-21 21V896zM120.5 798h259C446.05 798 500 744.05 500 677.5S446.05 557 379.5 557h-259C53.95 557 0 610.95 0 677.5S53.95 798 120.5 798zM557 386v-48c0-24.853-20.147-45-45-45s-45 20.147-45 45v48H326v-337h372V386H557z m-231 22h372c12.15 0 22-9.85 22-22v-337c0-12.15-9.85-22-22-22H326c-12.15 0-22 9.85-22 22V386c0 12.15 9.85 22 22 22z m101-179h170c6.075 0 11-4.925 11-11s-4.925-11-11-11H427c-6.075 0-11 4.925-11 11s4.925 11 11 11z m0-55h170c6.075 0 11-4.925 11-11s-4.925-11-11-11H427c-6.075 0-11 4.925-11 11s4.925 11 11 11z m0-55h170c6.075 0 11-4.925 11-11s-4.925-11-11-11H427c-6.075 0-11 4.925-11 11s4.925 11 11 11zM159.394 740c10.476 0 18.9-2.862 25.272-8.586 6.48-5.616 9.72-13.338 9.72-23.166 0-7.884-2.052-14.472-6.156-19.764-1.404-1.728-5.94-5.94-13.608-12.636-3.024-2.484-5.292-5.292-6.804-8.424-1.728-3.132-2.592-6.696-2.592-10.692v-2.754h-17.334v2.754c0 6.264 1.08 11.394 3.24 15.39 2.052 4.32 8.154 11.016 18.306 20.088l2.754 3.078c3.024 3.888 4.536 7.83 4.536 11.826 0 5.508-1.566 9.936-4.698 13.284-3.24 3.24-7.83 4.86-13.77 4.86-7.344 0-12.636-2.322-15.876-6.966-2.916-3.888-4.374-9.396-4.374-16.524H121c0 11.772 3.402 21.06 10.206 27.864 6.804 6.912 16.2 10.368 28.188 10.368z m-2.916-94.77c3.564 0 6.426-1.08 8.586-3.24 2.268-2.052 3.402-4.806 3.402-8.262 0-3.24-1.188-6.048-3.564-8.424-2.376-2.16-5.184-3.24-8.424-3.24-3.348 0-6.156 1.134-8.424 3.402-2.268 2.268-3.402 5.022-3.402 8.262 0 3.456 1.134 6.21 3.402 8.262 2.16 2.16 4.968 3.24 8.424 3.24zM251.394 740c10.476 0 18.9-2.862 25.272-8.586 6.48-5.616 9.72-13.338 9.72-23.166 0-7.884-2.052-14.472-6.156-19.764-1.404-1.728-5.94-5.94-13.608-12.636-3.024-2.484-5.292-5.292-6.804-8.424-1.728-3.132-2.592-6.696-2.592-10.692v-2.754h-17.334v2.754c0 6.264 1.08 11.394 3.24 15.39 2.052 4.32 8.154 11.016 18.306 20.088l2.754 3.078c3.024 3.888 4.536 7.83 4.536 11.826 0 5.508-1.566 9.936-4.698 13.284-3.24 3.24-7.83 4.86-13.77 4.86-7.344 0-12.636-2.322-15.876-6.966-2.916-3.888-4.374-9.396-4.374-16.524H213c0 11.772 3.402 21.06 10.206 27.864 6.804 6.912 16.2 10.368 28.188 10.368z m-2.916-94.77c3.564 0 6.426-1.08 8.586-3.24 2.268-2.052 3.402-4.806 3.402-8.262 0-3.24-1.188-6.048-3.564-8.424-2.376-2.16-5.184-3.24-8.424-3.24-3.348 0-6.156 1.134-8.424 3.402-2.268 2.268-3.402 5.022-3.402 8.262 0 3.456 1.134 6.21 3.402 8.262 2.16 2.16 4.968 3.24 8.424 3.24zM343.394 740c10.476 0 18.9-2.862 25.272-8.586 6.48-5.616 9.72-13.338 9.72-23.166 0-7.884-2.052-14.472-6.156-19.764-1.404-1.728-5.94-5.94-13.608-12.636-3.024-2.484-5.292-5.292-6.804-8.424-1.728-3.132-2.592-6.696-2.592-10.692v-2.754h-17.334v2.754c0 6.264 1.08 11.394 3.24 15.39 2.052 4.32 8.154 11.016 18.306 20.088l2.754 3.078c3.024 3.888 4.536 7.83 4.536 11.826 0 5.508-1.566 9.936-4.698 13.284-3.24 3.24-7.83 4.86-13.77 4.86-7.344 0-12.636-2.322-15.876-6.966-2.916-3.888-4.374-9.396-4.374-16.524H305c0 11.772 3.402 21.06 10.206 27.864 6.804 6.912 16.2 10.368 28.188 10.368z m-2.916-94.77c3.564 0 6.426-1.08 8.586-3.24 2.268-2.052 3.402-4.806 3.402-8.262 0-3.24-1.188-6.048-3.564-8.424-2.376-2.16-5.184-3.24-8.424-3.24-3.348 0-6.156 1.134-8.424 3.402-2.268 2.268-3.402 5.022-3.402 8.262 0 3.456 1.134 6.21 3.402 8.262 2.16 2.16 4.968 3.24 8.424 3.24z"  horiz-adv-x="1026" />

    
    <glyph glyph-name="bumen" unicode="&#58988;" d="M512 384m-512 0a512 512 0 1 1 1024 0 512 512 0 1 1-1024 0ZM552.571 140.143H228v81.143c0 89.628 72.658 162.285 162.286 162.285 66.981 0 124.485-40.58 149.268-98.495C565.404 320.204 607.04 343 654 343c78.425 0 142-63.575 142-142v-60.857H552.571zM512 505.286c0-67.221-54.493-121.715-121.714-121.715S268.57 438.065 268.57 505.286c0 67.22 54.494 121.714 121.715 121.714C457.506 627 512 572.507 512 505.286z m243.429-60.857C755.429 388.41 710.018 343 654 343s-101.429 45.41-101.429 101.429c0 56.017 45.411 101.428 101.429 101.428s101.429-45.41 101.429-101.428z"  horiz-adv-x="1024" />

    
    <glyph glyph-name="radiobtnsel" unicode="&#58989;" d="M512 8.533c207.365 0 375.467 168.102 375.467 375.467 0 207.365-168.102 375.467-375.467 375.467-207.365 0-375.467-168.102-375.467-375.467 0-207.365 168.102-375.467 375.467-375.467zM512-128C229.23-128 0 101.23 0 384S229.23 896 512 896s512-229.23 512-512-229.23-512-512-512z m-0.688 307.575c-113.107 0-204.8 91.692-204.8 204.8 0 113.108 91.693 204.8 204.8 204.8 113.108 0 204.8-91.692 204.8-204.8 0-113.108-91.692-204.8-204.8-204.8z"  horiz-adv-x="1024" />

    
    <glyph glyph-name="zhushi" unicode="&#58991;" d="M512-64c247.424 0 448 200.576 448 448S759.424 832 512 832 64 631.424 64 384s200.576-448 448-448z m0-64C229.23-128 0 101.23 0 384S229.23 896 512 896s512-229.23 512-512-229.23-512-512-512z m68.349 302.116c6.68 0 14.207 1.152 22.655 3.457 8.524 2.228 14.59 4.224 18.43 5.915l-7.37-29.183c-22.043-8.448-39.628-14.9-52.837-19.354-13.133-4.377-28.415-6.604-45.771-6.604-26.802 0-47.537 6.299-62.358 18.97-14.899 12.672-22.27 28.799-22.27 48.227-0.006 7.76 0.533 15.51 1.612 23.194a271.415 271.415 0 0 0 5.376 26.879l27.647 94.92a430.078 430.078 0 0 1 6.22 25.802c1.689 8.14 2.457 15.59 2.457 22.271 0 12.135-2.534 20.583-7.68 25.343-5.145 4.839-14.898 7.143-29.489 7.143a79.094 79.094 0 0 1-22.041-3.227c-7.449-2.15-13.823-4.224-19.2-6.144l7.373 29.259c18.047 7.143 35.327 13.21 51.915 18.278 16.511 5.146 32.1 7.68 46.846 7.68 26.571 0 46.999-6.22 61.437-18.662 14.36-12.517 21.58-28.644 21.58-48.611 0-4.148-0.539-11.367-1.536-21.81-0.923-10.368-2.842-19.89-5.53-28.568l-27.493-94.538c-2.15-7.602-4.223-16.28-5.99-26.033-1.843-9.755-2.688-17.127-2.688-22.119 0-12.518 2.842-21.119 8.678-25.573 5.76-4.608 15.82-6.912 30.027-6.912z m28.875 448.489a55.212 55.212 0 0 0 19.199-42.238 54.671 54.671 0 0 0-19.2-42.083 66.654 66.654 0 0 0-46.306-17.356c-18.047 0-33.562 5.837-46.462 17.356a54.522 54.522 0 0 0-19.431 42.083 54.985 54.985 0 0 0 19.43 42.238 66.806 66.806 0 0 0 46.462 17.586 66.272 66.272 0 0 0 46.308-17.586z"  horiz-adv-x="1024" />

    
    <glyph glyph-name="PPT" unicode="&#58977;" d="M630 896l287-287v-699c0-20.987-17.013-38-38-38H145c-20.987 0-38 17.013-38 38V858c0 20.987 17.013 38 38 38h485zM145 880c-12.15 0-22-9.85-22-22v-948c0-12.15 9.85-22 22-22h734c12.15 0 22 9.85 22 22V602.373L623.373 880H145zM630 896l287-287v-699c0-20.987-17.013-38-38-38H145c-20.987 0-38 17.013-38 38V858c0 20.987 17.013 38 38 38h485zM630 896l287-287H651c-11.598 0-21 9.402-21 21V896zM120.5 798h259C446.05 798 500 744.05 500 677.5S446.05 557 379.5 557h-259C53.95 557 0 610.95 0 677.5S53.95 798 120.5 798zM282 351v-314h461V351H282z m0 22h461c12.15 0 22-9.85 22-22v-314c0-12.15-9.85-22-22-22H282c-12.15 0-22 9.85-22 22V351c0 12.15 9.85 22 22 22z m68-108h134c6.075 0 11-4.925 11-11s-4.925-11-11-11H350c-6.075 0-11 4.925-11 11s4.925 11 11 11z m284.016-6.994L608 194l63.935 27.545C675.833 212.827 678 203.167 678 193c0-38.66-31.34-70-70-70s-70 31.34-70 70 31.34 70 70 70c9.194 0 17.973-1.772 26.016-4.994z m28.08 28.49a108.549 108.549 0 0 0 36.787-35.125l-69.691-35.466 32.903 70.591zM350 205h134c6.075 0 11-4.925 11-11s-4.925-11-11-11H350c-6.075 0-11 4.925-11 11s4.925 11 11 11z m0-60h134c6.075 0 11-4.925 11-11s-4.925-11-11-11H350c-6.075 0-11 4.925-11 11s4.925 11 11 11zM189 667v-45.15a8 8 0 1 0-16 0v53a8.138 8.138 0 0 0 0 0.15 8 8 0 0 0 8 8h112c9.941 0 18 8.059 18 18s-8.059 18-18 18H181a8 8 0 1 0 0 16h112c18.778 0 34-15.222 34-34s-15.222-34-34-34H189z"  horiz-adv-x="1026" />

    
    <glyph glyph-name="word" unicode="&#58978;" d="M630 896l287-287v-699c0-20.987-17.013-38-38-38H145c-20.987 0-38 17.013-38 38V858c0 20.987 17.013 38 38 38h485zM145 880c-12.15 0-22-9.85-22-22v-948c0-12.15 9.85-22 22-22h734c12.15 0 22 9.85 22 22V602.373L623.373 880H145zM630 896l287-287v-699c0-20.987-17.013-38-38-38H145c-20.987 0-38 17.013-38 38V858c0 20.987 17.013 38 38 38h485zM630 896l287-287H651c-11.598 0-21 9.402-21 21V896zM269 402h486c10.493 0 19-8.507 19-19s-8.507-19-19-19H269c-10.493 0-19 8.507-19 19s8.507 19 19 19z m0-110h486c10.493 0 19-8.507 19-19s-8.507-19-19-19H269c-10.493 0-19 8.507-19 19s8.507 19 19 19z m0-110h486c10.493 0 19-8.507 19-19s-8.507-19-19-19H269c-10.493 0-19 8.507-19 19s8.507 19 19 19z m0-110h275c10.493 0 19-8.507 19-19s-8.507-19-19-19H269c-10.493 0-19 8.507-19 19s8.507 19 19 19zM120.5 798h259C446.05 798 500 744.05 500 677.5S446.05 557 379.5 557h-259C53.95 557 0 610.95 0 677.5S53.95 798 120.5 798zM179.973 620.263A8 8 0 0 0 166.397 626V729a8 8 0 1 0 16 0v-83.83l68.29 68.29 0.083-0.084 0.084 0.084L319 645.314V729a8 8 0 1 0 16 0v-103a8 8 0 0 0-13.933-5.366 4.058 4.058 0 0 0-0.21 0.194l-70.087 70.088-70.087-70.088c-0.22-0.219-0.458-0.407-0.71-0.565z"  horiz-adv-x="1026" />

    
    <glyph glyph-name="PDF" unicode="&#58979;" d="M630 896l287-287v-699c0-20.987-17.013-38-38-38H145c-20.987 0-38 17.013-38 38V858c0 20.987 17.013 38 38 38h485zM145 880c-12.15 0-22-9.85-22-22v-948c0-12.15 9.85-22 22-22h734c12.15 0 22 9.85 22 22V602.373L623.373 880H145zM630 896l287-287v-699c0-20.987-17.013-38-38-38H145c-20.987 0-38 17.013-38 38V858c0 20.987 17.013 38 38 38h485zM291.74 48.016c30.662 21.276 50.999 52.563 70.397 83.538-27.846-23.778-54.127-50.373-70.397-83.538z m363.563 155.5c28.784-13.767 60.385-28.472 92.924-19.711-22.527 27.22-61.95 19.711-92.924 19.711zM429.719 182.24c41.612 15.331 84.164 27.22 127.34 36.294-27.845 24.717-51.31 53.502-70.083 85.728-15.331-42.238-35.668-82.6-57.257-122.022z m62.262 223.082c13.454 34.416 17.521 76.342-5.319 107.63-6.57-35.668-3.754-72.588 5.32-107.63z m-41.612 96.366c3.754 22.84 32.852 27.22 50.999 20.337 11.263-7.196 16.895-20.962 17.208-34.103 1.251-40.361-5.945-80.097-11.577-119.832-3.128-18.46 8.135-35.043 16.27-50.686 20.024-36.92 47.87-70.085 84.477-91.36 44.115 5.318 90.42 11.889 133.598-2.19 32.226-10.951 24.717-70.71-10.325-71.336-49.122-2.503-93.55 21.9-137.666 39.735-60.698-4.38-119.832-22.84-178.028-40.361-26.281-42.864-50.06-90.735-92.611-119.832-21.276-16.583-70.085-2.816-59.134 29.41 18.46 45.054 64.453 69.772 104.814 92.298 11.576 5.945 18.147 17.209 24.092 28.472 27.533 52.876 55.066 105.753 77.28 161.132-11.576 51.937-28.472 105.127-19.398 158.316zM630 896l287-287H651c-11.598 0-21 9.402-21 21V896zM120.5 798h259C446.05 798 500 744.05 500 677.5S446.05 557 379.5 557h-259C53.95 557 0 610.95 0 677.5S53.95 798 120.5 798zM121.01 728.102h42.328c24.31 0 36.465-10.344 36.465-31.031 0-20.878-12.25-31.317-36.751-31.317h-26.455V626H121.01V728.102z m15.587-13.299v-35.75h25.454c7.722 0 13.347 1.43 16.874 4.29 3.527 2.955 5.291 7.531 5.291 13.728 0 6.387-1.811 10.868-5.434 13.442-3.527 2.86-9.104 4.29-16.731 4.29h-25.454z m77.649 13.299h37.18c16.397 0 28.886-4.624 37.466-13.871 8.008-8.58 12.012-20.973 12.012-37.18 0-15.92-4.1-28.362-12.298-37.323-8.58-9.152-21.069-13.728-37.466-13.728h-36.894V728.102z m15.587-13.299v-75.504h18.447c12.965 0 22.451 3.098 28.457 9.295 5.91 6.197 8.866 15.682 8.866 28.457 0 12.965-2.908 22.499-8.723 28.6-6.006 6.101-15.444 9.152-28.314 9.152h-18.733z m86.944 13.299h69.355v-13.299h-53.768v-29.744h50.765v-13.299h-50.765V626h-15.587V728.102z"  horiz-adv-x="1026" />

    
    <glyph glyph-name="checkboxsel" unicode="&#58992;" d="M512 384m-512 0a512 512 0 1 1 1024 0 512 512 0 1 1-1024 0ZM877.792 612.74c-12.878 13.591-33.79 13.591-46.69 0l-428.045-451.8L192.92 382.728c-12.9 13.614-33.812 13.614-46.712 0-12.9-13.592-12.9-35.687 0-49.279l233.493-246.438c12.878-13.615 33.79-13.615 46.69 0l451.4 476.427c12.9 13.615 12.9 35.687 0 49.302"  horiz-adv-x="1024" />

    
    <glyph glyph-name="fanhuidingbu" unicode="&#58993;" d="M544 639.412V-96c0-17.673-14.327-32-32-32-17.673 0-32 14.327-32 32V637.785L212.558 370.344c-12.497-12.497-32.758-12.497-45.255 0-12.496 12.496-12.496 32.758 0 45.254L489.744 738.04c6.36 6.36 14.733 9.484 23.07 9.37 8.335 0.114 16.708-3.01 23.068-9.37l322.44-322.44c12.498-12.497 12.498-32.759 0-45.255-12.496-12.497-32.757-12.497-45.254 0L544 639.412zM88 896h848c17.673 0 32-14.327 32-32 0-17.673-14.327-32-32-32H88c-17.673 0-32 14.327-32 32C56 881.673 70.327 896 88 896z"  horiz-adv-x="1024" />

    
    <glyph glyph-name="sousuo1" unicode="&#58994;" d="M801.987 139.268l199.199-199.199c12.497-12.497 12.497-32.758 0-45.255s-32.758-12.497-45.255 0l-199.199 199.2C676.494 24.24 571.68-18 457-18 204.606-18 0 186.606 0 439S204.606 896 457 896s457-204.606 457-457c0-114.68-42.241-219.494-112.013-299.732zM457 46c217.048 0 393 175.952 393 393S674.048 832 457 832 64 656.048 64 439s175.952-393 393-393z"  horiz-adv-x="1024" />

    
    <glyph glyph-name="dangniandengjilishidengji" unicode="&#58995;" d="M0 384c0-282.77 229.23-512 512-512s512 229.23 512 512S794.77 896 512 896 0 666.77 0 384zM739.625 589.415c9.897 0 18.007-8.036 18.007-17.92v-211.09c0-77.901-127.767-261.294-244.315-261.294C402.02 99.111 266 278.38 266 366.876V572.562a17.85 17.85 0 0 0 5.324 12.693c3.394 3.378 8.432 4.658 12.79 5.226 54.988 0 170.321 14.791 215.09 70.79a18.261 18.261 0 0 0 12.434 6.65c4.894 0.462 9.718-1.103 13.434-4.267 0.893-0.747 88.036-74.24 214.553-74.24v0.001z m-228.07-254.748l58.518-30.765-11.176 65.16 47.342 46.147-65.425 9.507L511.556 484l-29.26-59.284-65.423-9.507 47.341-46.147-11.176-65.16 58.518 30.765z"  horiz-adv-x="1024" />

    
    <glyph glyph-name="zidingyibiaoqian" unicode="&#58996;" d="M0 384c0-282.77 229.23-512 512-512s512 229.23 512 512S794.77 896 512 896 0 666.77 0 384zM316.746 661C283.25 661 256 633.75 256 600.254v-142.496c0-33.496 19.302-80.616 43.146-103.892L541.561 111.45c23.844-23.844 62.449-23.844 86.293 0l178.263 177.695c23.844 23.844 23.844 62.449 0 86.293L563.134 617.854C539.858 641.698 492.738 661 459.242 661H316.746z m81.183-202.675c-33.495 0-60.746 27.25-60.746 60.746 0 33.495 27.25 60.746 60.746 60.746 33.495 0 60.746-27.25 60.746-60.746 0-33.495-27.25-60.746-60.746-60.746z"  horiz-adv-x="1024" />

    
    <glyph glyph-name="baoyouliang" unicode="&#58997;" d="M0 384c0-282.77 229.23-512 512-512s512 229.23 512 512S794.77 896 512 896 0 666.77 0 384zM578.574 545.931c0.837-8.222 2.626-17.41 3.999-20.482l1.724-2.195c4.726-5.909 10.752-13.134 17.907-21.484 5.835-7 12.86-14.018 22.168-22.16l0.339-0.316c8.483-8.483 19.107-17.877 30.723-27.174l0.236-0.197c9.89-8.658 19.638-18.405 30.678-30.676 11.113-12.343 19.89-25.9 27.622-42.655 8.491-18.38 13.942-36.83 16.214-54.837 3.365-19.2 3.007-39.976-1.197-69.421a176.152 176.152 0 0 0-22.59-60.366c-11.249-18.76-26.45-35.235-45.18-48.975-19.487-14.29-40.98-25.244-65.708-33.489-23.447-8.214-52.162-12.393-85.237-12.393-31.55 0-60.225 4.449-87.66 13.596l-0.275 0.1c-28.67 10.92-48.67 22.49-64.847 37.51-18.044 15.46-32.753 33.221-42.325 51.17-10.696 20.055-17.613 38.396-21.143 56.076-3.543 18.891-3.97 38.665-1.283 58.847 2.438 18.266 7.328 35.794 14.948 53.577 7.012 15.194 15.214 29.648 25.883 45.654l0.405 0.544c12.471 15.24 23.412 26.957 34.428 36.874l3.693 3.279c9.45 8.389 17.613 15.634 24.933 22.953 8.275 8.278 15.426 15.426 21.237 22.404l0.425 0.464c6.87 6.872 12.654 13.803 17.189 20.61l2.06 3.09h0.835c-0.627 0.248-0.87 0.52-0.73 0.813 1.226 2.548 1.828 10.142 1.808 17.627-0.991 1.865-2.201 3.804-3.473 5.84-1.491 2.389-3.033 4.855-4.346 7.423-0.63 0.964-1.263 2-1.916 3.069-1.658 2.713-3.368 5.512-5.398 7.547l-0.87 1.058-7.402 11.116c-3.463 5.778-7.745 10.885-11.447 13.659l-0.75 0.65c-4.44 4.443-8.896 7.789-13.62 11.332-5.9 4.426-10.313 10.286-13.192 17.475-3.45 8.639-0.4 17.838 7.586 23.342 3.44 4.523 7.703 6.645 13.304 6.645 3.754 0 7.233-0.916 10.924-1.891 0.886-0.233 1.813-0.478 2.793-0.722l0.52-0.153c1.724-0.575 3.734-1.147 5.745-1.721 2.202-0.63 4.401-1.258 6.29-1.892 2.351-0.783 4.945-0.84 7.91-0.846 3.824 0.863 6.299 2.327 9.084 4.162 3.168 4.107 8.322 7.945 15.694 11.69 6.248 4.452 13.979 5.993 22.837 4.513a47.229 47.229 0 0 0 17.153-7.09l1.53-1.021 0.824-1.644c0.159-0.278 0.983-0.908 1.472-1.286 0.395-0.3 0.764-0.594 1.105-0.88 1.164-0.636 2.075-1.241 2.897-1.794 0.808-0.536 1.446-0.963 2.257-1.369l2.063-1.033 1.033-2.063c0.078-0.111 0.261-0.253 0.506-0.408 1.546 0.927 5.323 4.706 7.614 7 5.631 5.629 11.28 8.453 16.261 10.94 2.763 1.384 5.779 2.053 9.23 2.053 4.418 0 9.211-1.11 15.054-2.785l0.283-0.086c4.112-1.37 8.777-2.921 12.348-6.495l7.223-7.217c1.622-1.622 3.296-2.458 5.412-3.513 1.624-0.814 4.19-1.677 6.534-1.677 2.371 0 5.201 0.908 8.203 1.907 1.338 0.64 2.821 1.23 4.257 1.808 1.35 0.539 2.746 1.1 3.693 1.57l1.463 0.732h1.322c0.347 0.061 0.783 0.17 1.263 0.278 1.822 0.41 4.09 0.927 6.276 0.927 2.674 0 7.15 0 11.83-1.563 6.386-2.124 11.057-6.356 12.812-11.61l0.43-1.25c1.144-3.29 2.574-7.38 0.772-12.773-1.397-4.193-2.868-7.145-5.62-11.282-2.902-4.354-5.995-7.453-10.352-10.355-6.654-4.438-12.254-8.889-16.661-13.24-1.758-2.336-3.771-4.924-5.787-7.514-2.08-2.677-4.16-5.351-5.945-7.728l-0.642-0.742c-1.924-1.927-4.179-5.306-6.356-8.575l-6.99-10.48c-1.983-3.918-3.99-7.116-6.32-10.406h0.001z m-86.29-295.873V213h38.143v37.058h51.039v29.999h-51.04v16.289h51.04v29.999h-35.972l42.759 85.653h-41.809l-27.691-57.826c-3.167-6.787-5.61-13.167-7.33-19.14-1.448 5.52-3.891 11.9-7.33 19.14l-27.149 57.826h-41.808l42.216-85.653h-35.43v-30h50.361v-16.288h-50.36v-30h50.36z"  horiz-adv-x="1024" />

    
    <glyph glyph-name="jieshi" unicode="&#58998;" d="M512-128c282.77 0 512 229.23 512 512S794.77 896 512 896 0 666.77 0 384s229.23-512 512-512z m97.973 280.648c7.466 0 15.878 1.269 25.32 3.806 9.526 2.453 16.307 4.65 20.598 6.511l-8.238-32.126c-24.635-9.3-44.288-16.401-59.051-21.305-14.678-4.818-31.758-7.27-51.155-7.27-29.954 0-53.128 6.934-69.692 20.883-16.651 13.95-24.89 31.703-24.89 53.09a180.006 180.006 0 0 0 1.802 25.533 294.824 294.824 0 0 0 6.009 29.589l30.898 104.491a467.518 467.518 0 0 1 6.952 28.405c1.887 8.96 2.745 17.162 2.745 24.516 0 13.358-2.831 22.658-8.583 27.899-5.75 5.326-16.65 7.862-32.957 7.862a89.648 89.648 0 0 1-24.634-3.551c-8.324-2.367-15.448-4.65-21.457-6.764l8.24 32.21c20.169 7.863 39.481 14.54 58.021 20.12 18.453 5.665 35.876 8.455 52.356 8.455 29.696 0 52.527-6.848 68.663-20.544 16.05-13.78 24.118-31.533 24.118-53.513 0-4.566-0.602-12.513-1.716-24.01-1.032-11.412-3.177-21.896-6.182-31.448l-30.726-104.07c-2.403-8.37-4.72-17.923-6.695-28.659-2.06-10.738-3.004-18.853-3.004-24.348 0-13.781 3.177-23.249 9.7-28.153 6.437-5.072 17.68-7.609 33.558-7.609z m32.27 493.713c13.739-11.643 21.585-28.646 21.458-46.497 0.16-17.809-7.698-34.772-21.457-46.327-14.126-12.67-32.653-19.51-51.754-19.106-20.17 0-37.509 6.426-51.927 19.106-13.874 11.492-21.833 28.472-21.716 46.327-0.097 17.9 7.854 34.923 21.716 46.497 14.14 12.788 32.735 19.721 51.927 19.36 19.143 0.378 37.692-6.56 51.754-19.36z"  horiz-adv-x="1024" />

    
    <glyph glyph-name="jieshi-copy" unicode="&#58999;" d="M512-128c282.77 0 512 229.23 512 512S794.77 896 512 896 0 666.77 0 384s229.23-512 512-512z m97.973 280.648c7.466 0 15.878 1.269 25.32 3.806 9.526 2.453 16.307 4.65 20.598 6.511l-8.238-32.126c-24.635-9.3-44.288-16.401-59.051-21.305-14.678-4.818-31.758-7.27-51.155-7.27-29.954 0-53.128 6.934-69.692 20.883-16.651 13.95-24.89 31.703-24.89 53.09a180.006 180.006 0 0 0 1.802 25.533 294.824 294.824 0 0 0 6.009 29.589l30.898 104.491a467.518 467.518 0 0 1 6.952 28.405c1.887 8.96 2.745 17.162 2.745 24.516 0 13.358-2.831 22.658-8.583 27.899-5.75 5.326-16.65 7.862-32.957 7.862a89.648 89.648 0 0 1-24.634-3.551c-8.324-2.367-15.448-4.65-21.457-6.764l8.24 32.21c20.169 7.863 39.481 14.54 58.021 20.12 18.453 5.665 35.876 8.455 52.356 8.455 29.696 0 52.527-6.848 68.663-20.544 16.05-13.78 24.118-31.533 24.118-53.513 0-4.566-0.602-12.513-1.716-24.01-1.032-11.412-3.177-21.896-6.182-31.448l-30.726-104.07c-2.403-8.37-4.72-17.923-6.695-28.659-2.06-10.738-3.004-18.853-3.004-24.348 0-13.781 3.177-23.249 9.7-28.153 6.437-5.072 17.68-7.609 33.558-7.609z m32.27 493.713c13.739-11.643 21.585-28.646 21.458-46.497 0.16-17.809-7.698-34.772-21.457-46.327-14.126-12.67-32.653-19.51-51.754-19.106-20.17 0-37.509 6.426-51.927 19.106-13.874 11.492-21.833 28.472-21.716 46.327-0.097 17.9 7.854 34.923 21.716 46.497 14.14 12.788 32.735 19.721 51.927 19.36 19.143 0.378 37.692-6.56 51.754-19.36z"  horiz-adv-x="1024" />

    
    <glyph glyph-name="radiobtn" unicode="&#58990;" d="M512-128C229.23-128 0 101.23 0 384S229.23 896 512 896s512-229.23 512-512-229.23-512-512-512z m0 33.032c264.527 0 478.968 214.441 478.968 478.968 0 264.527-214.441 478.968-478.968 478.968C247.473 862.968 33.032 648.527 33.032 384c0-264.527 214.441-478.968 478.968-478.968z"  horiz-adv-x="1024" />

    


  </font>
</defs>
</svg>
